<?xml version="1.0" encoding="UTF-8" standalone="no"?>
<svg width="1440px" height="160px" viewBox="0 0 1440 160" version="1.1" xmlns="http://www.w3.org/2000/svg" xmlns:xlink="http://www.w3.org/1999/xlink">
    <!-- Generator: Sketch 39.1 (31720) - http://www.bohemiancoding.com/sketch -->
    <title>Page 1</title>
    <desc>Created with Sketch.</desc>
    <defs>
        <polygon id="path-1" points="0.7699 116 115.8259 116 115.8259 0.200515505 0.7699 0.200515505"></polygon>
        <polygon id="path-3" points="2.71050543e-20 0.51443575 2.71050543e-20 12.6218 289.785033 12.6218 289.785033 0.51443575 0 0.51443575"></polygon>
    </defs>
    <g id="Page-1" stroke="none" stroke-width="1" fill="none" fill-rule="evenodd">
        <g id="home" transform="translate(0.000000, -56.000000)">
            <g id="Page-1" transform="translate(-24.000000, 56.000000)">
                <g id="Group-3" transform="translate(281.000000, 43.264000)">
                    <mask id="mask-2" fill="white">
                        <use xlink:href="#path-1"></use>
                    </mask>
                    <g id="Clip-2"></g>
                    <path d="M39.7939,99.8721 C40.3699,97.5681 40.7049,95.6461 40.8019,94.1121 C40.2259,94.6881 39.4809,95.3111 38.5699,95.9841 C37.6559,96.6541 36.9609,97.2301 36.4819,97.7121 C34.7539,99.6311 33.6019,101.1681 33.0259,102.3201 C31.7769,104.6241 31.0569,106.3521 30.8659,107.5041 L30.7219,108.0801 C30.7219,108.4621 30.7689,108.8471 30.8659,109.2321 C30.9609,109.6141 31.0099,109.9991 31.0099,110.3841 L31.0099,110.6721 C31.0099,111.7271 31.1539,112.5441 31.4419,113.1201 C31.8239,113.5991 32.3529,113.8401 33.0259,113.8401 C33.6019,113.8401 34.5129,113.2141 35.7619,111.9681 C36.2409,111.4861 36.5759,111.1511 36.7699,110.9601 C36.9609,110.7671 37.2019,110.3841 37.4899,109.8081 C37.7779,109.4231 37.9939,108.9441 38.1379,108.3681 C38.2819,107.7921 38.4009,107.3601 38.4979,107.0721 C38.6889,106.2081 38.9299,104.8151 39.2179,102.8961 L39.7939,99.8721 Z M115.8259,91.3761 C115.8259,91.5671 115.7039,91.7831 115.4659,92.0241 C115.2249,92.2631 114.9619,92.3841 114.6739,92.3841 C114.4799,92.3841 114.2169,92.3121 113.8819,92.1681 C113.5439,92.0241 113.2809,91.9021 113.0899,91.8081 L110.0659,90.3681 C108.4319,89.4071 106.9449,88.7341 105.6019,88.3521 C102.1459,87.5821 99.5539,87.0561 97.8259,86.7681 L93.9379,86.0481 C93.2649,85.9511 92.4729,85.9041 91.5619,85.9041 L89.6179,85.9041 C87.8899,85.7101 86.4969,85.6161 85.4419,85.6161 C84.6719,85.5191 83.7139,85.4221 82.5619,85.3281 C81.4099,85.2311 80.0169,85.1841 78.3859,85.1841 C76.4639,85.1841 74.5449,85.3281 72.6259,85.6161 C70.2249,85.9981 68.2559,86.2391 66.7219,86.3361 C66.0489,86.4311 64.6339,86.5991 62.4739,86.8401 C60.3139,87.0791 58.3699,87.4381 56.6419,87.9201 L51.8899,89.2161 C51.7929,89.2161 51.1699,89.4551 50.0179,89.9361 C49.8239,90.0301 49.6579,90.3181 49.5139,90.8001 C49.3699,91.2791 49.2479,91.6641 49.1539,91.9521 L48.2899,94.9761 C48.0959,95.5521 47.7859,96.4631 47.3539,97.7121 C46.9219,98.9581 46.5119,100.0161 46.1299,100.8801 C45.8419,101.6471 45.4319,102.8241 44.9059,104.4081 C44.3769,105.9921 43.7289,107.3101 42.9619,108.3681 C41.0399,111.3421 39.2649,113.3111 37.6339,114.2721 C35.7119,115.4241 34.1279,116.0001 32.8819,116.0001 C32.0179,116.0001 31.2009,115.7591 30.4339,115.2801 C29.9519,114.8951 29.5919,114.4161 29.3539,113.8401 C29.1129,113.2641 28.9439,112.6391 28.8499,111.9681 L28.7059,110.2401 L28.7059,107.9361 L28.7059,107.6481 C28.7059,106.6871 29.1379,105.3441 30.0019,103.6161 C30.0959,103.3281 30.3119,102.7741 30.6499,101.9601 C30.9849,101.1431 31.3919,100.4481 31.8739,99.8721 C33.5049,97.6631 35.3299,95.6961 37.3459,93.9681 L39.0739,92.6721 C39.4559,92.4781 39.8159,92.2151 40.1539,91.8801 C40.4889,91.5421 40.8489,91.2791 41.2339,91.0881 L41.3779,90.8001 L41.5219,89.6481 C41.7129,88.4961 41.8099,87.7261 41.8099,87.3441 L43.1059,77.6961 C43.2969,75.5831 43.3939,73.9991 43.3939,72.9441 C43.4879,71.8861 43.7289,70.5431 44.1139,68.9121 C44.4959,67.3751 44.7369,65.8381 44.8339,64.3041 C44.9279,62.7671 45.0249,61.6631 45.1219,60.9921 L46.2739,50.0481 L47.2819,39.8241 L47.8579,35.9361 C48.3369,34.0171 48.6249,32.0981 48.7219,30.1761 C48.7219,29.5051 48.8409,28.6881 49.0819,27.7281 C49.3199,26.7691 49.4889,26.0001 49.5859,25.4241 L50.1619,21.1041 C47.2819,25.3301 44.9779,28.3531 43.2499,30.1761 L41.5219,31.9041 C40.8489,32.4801 40.0319,32.9121 39.0739,33.2001 C37.9219,33.6821 36.8639,33.9201 35.9059,33.9201 C35.6179,33.9201 35.0889,33.8261 34.3219,33.6321 C33.1699,33.3441 31.5359,32.7211 29.4259,31.7601 C28.7529,31.3771 28.0329,30.8491 27.2659,30.1761 C26.4959,29.5051 25.9699,29.0241 25.6819,28.7361 C24.3359,27.7771 23.4249,26.3851 22.9459,24.5601 C22.7519,23.4081 22.6579,22.4491 22.6579,21.6801 C22.6579,20.8161 22.7049,20.1451 22.8019,19.6641 L22.9459,17.5041 C23.1369,16.3521 23.4249,15.0091 23.8099,13.4721 C24.0979,12.6081 24.5299,11.6001 25.1059,10.4481 L18.3379,15.0561 C17.5679,15.6321 16.3219,16.3051 14.5939,17.0721 C13.3449,17.6481 12.0489,18.3681 10.7059,19.2321 C9.3599,20.1931 7.7539,21.0321 5.8819,21.7521 C4.0099,22.4721 2.8819,22.8811 2.4979,22.9761 L1.9219,22.9761 C1.1539,22.9761 0.7699,22.6411 0.7699,21.9681 C0.7699,21.3921 1.1539,21.0091 1.9219,20.8161 C2.6909,20.6241 3.1699,20.4801 3.3619,20.3841 L7.5379,18.5121 C8.1139,18.2241 8.6899,17.8891 9.2659,17.5041 C9.8419,17.1221 10.4179,16.7841 10.9939,16.4961 C12.7219,15.5381 14.0179,14.9121 14.8819,14.6241 C15.5519,14.3361 16.2499,13.9291 16.9699,13.4001 C17.6899,12.8731 18.2409,12.4641 18.6259,12.1761 C20.8329,10.5451 23.3279,8.9141 26.1139,7.2801 C26.5929,6.9921 27.1689,6.6091 27.8419,6.1281 C28.5119,5.6491 29.2819,5.1201 30.1459,4.5441 C30.7219,4.1621 31.1539,3.9211 31.4419,3.8241 L32.0179,3.3921 C33.1699,2.7221 34.6099,2.1451 36.3379,1.6641 C38.0659,1.2811 39.4089,1.0881 40.3699,1.0881 C41.4249,1.0881 42.3609,1.2091 43.1779,1.4481 C43.9919,1.6881 44.4959,1.8571 44.6899,1.9521 C45.8419,2.3371 46.7059,3.1041 47.2819,4.2561 C47.9519,5.4081 48.2899,6.4161 48.2899,7.2801 C48.2899,9.1041 47.8579,10.4971 46.9939,11.4561 C46.7999,11.6491 46.5619,11.7441 46.2739,11.7441 C45.9859,11.7441 45.7199,11.6491 45.4819,11.4561 C45.2409,11.2651 45.1219,11.0241 45.1219,10.7361 C45.1219,10.5451 45.1939,10.3291 45.3379,10.0881 C45.4819,9.8501 45.6009,9.6331 45.6979,9.4401 C45.8889,9.0581 45.9859,8.4811 45.9859,7.7121 L46.1299,7.4241 C46.1299,6.8481 45.9359,6.2971 45.5539,5.7681 C45.1689,5.2411 44.6899,4.9291 44.1139,4.8321 L43.8259,4.8321 C42.8649,4.8321 41.8569,5.2641 40.8019,6.1281 C40.2259,6.6091 39.7219,7.2331 39.2899,8.0001 C38.8579,8.7691 38.5449,9.2961 38.3539,9.5841 C37.9689,10.1601 37.5619,10.7131 37.1299,11.2401 C36.6979,11.7681 36.2879,12.3201 35.9059,12.8961 C35.1359,13.9541 34.5849,15.1051 34.2499,16.3521 C33.9119,17.6011 33.6019,19.2321 33.3139,21.2481 C33.0259,22.7851 32.8819,24.3691 32.8819,26.0001 L32.8819,26.4321 C32.8819,28.2571 33.1699,29.5051 33.7459,30.1761 C34.1279,30.6571 34.6099,31.0891 35.1859,31.4721 L36.3379,31.6161 C37.7779,31.6161 39.2179,30.9931 40.6579,29.7441 C42.2889,28.3041 44.1139,26.1441 46.1299,23.2641 C46.6089,22.5931 47.3539,21.5141 48.3619,20.0241 C49.3699,18.5371 50.1619,17.1221 50.7379,15.7761 C51.3139,13.8571 51.6019,12.4161 51.6019,11.4561 C51.6019,10.7861 51.6959,10.0161 51.8899,9.1521 C52.0809,8.2881 52.2249,7.6641 52.3219,7.2801 C52.3219,6.8971 52.3689,6.2251 52.4659,5.2641 C52.5599,4.3061 52.7039,3.4411 52.8979,2.6721 L53.3299,1.6641 C53.3299,1.4731 53.2799,1.3291 53.1859,1.2321 C53.0889,1.1381 53.0419,0.9941 53.0419,0.8001 C53.0419,0.4171 53.4239,0.2241 54.1939,0.2241 C55.2489,0.1291 56.4729,0.3211 57.8659,0.8001 C59.2559,1.2811 60.3359,1.9051 61.1059,2.6721 C61.7759,3.2481 62.2079,4.0181 62.4019,4.9761 C62.5929,5.9361 62.6899,6.5131 62.6899,6.7041 C62.8809,8.4321 62.9779,9.7771 62.9779,10.7361 C62.9779,11.3121 62.8809,12.1291 62.6899,13.1841 C62.4959,14.2411 62.4019,15.0091 62.4019,15.4881 C62.4019,16.2571 62.3049,17.0721 62.1139,17.9361 C61.9199,18.8001 61.7759,19.4251 61.6819,19.8081 C61.4879,20.7681 61.2969,22.3061 61.1059,24.4161 C61.0089,25.4741 60.7679,27.0581 60.3859,29.1681 C60.2889,29.6491 60.1449,30.3201 59.9539,31.1841 C59.7599,32.0481 59.6159,32.8651 59.5219,33.6321 C59.5219,35.1691 59.3779,36.6561 59.0899,38.0961 L57.3619,49.1841 C57.1689,50.7181 56.7859,53.5041 56.2099,57.5361 L54.6259,67.3281 L52.4659,77.9841 C52.1779,80.7671 51.5519,83.8881 50.5939,87.3441 C51.8399,86.7681 53.2329,86.3361 54.7699,86.0481 L58.6579,84.7521 L60.9619,84.4641 L62.9779,83.8881 C63.8419,83.6941 64.6089,83.5751 65.2819,83.5281 C65.9519,83.4781 66.4809,83.4561 66.8659,83.4561 C67.7299,83.2631 68.8319,83.0711 70.1779,82.8801 C71.9059,82.4951 73.6339,82.2071 75.3619,82.0161 C78.1449,81.9191 81.0249,81.9191 84.0019,82.0161 C85.0569,82.0161 86.5439,82.1101 88.4659,82.3041 C89.1359,82.3981 89.8089,82.4231 90.4819,82.3761 C91.1519,82.3271 91.8249,82.3511 92.4979,82.4481 C95.2809,82.7361 97.9199,83.3121 100.4179,84.1761 C101.1849,84.3671 101.8579,84.5591 102.4339,84.7521 L104.3059,85.0401 C105.1699,85.2311 106.3689,85.7101 107.9059,86.4801 L111.7939,88.2081 C112.2729,88.4961 112.8239,88.8311 113.4499,89.2161 C114.0729,89.5991 114.6239,89.8861 115.1059,90.0801 C115.5849,90.1741 115.8259,90.6061 115.8259,91.3761 L115.8259,91.3761 Z" id="Fill-1" fill="#FFFFFF" mask="url(#mask-2)"></path>
                </g>
                <path d="M385.7368,112.4642 C384.7758,112.2702 383.8148,111.6002 382.8568,110.4482 C381.0318,108.4322 379.9268,105.9842 379.5448,103.1042 C379.1598,100.9912 379.0628,99.3602 379.2568,98.2082 L379.8328,93.8882 C379.9268,92.8302 380.1678,91.2492 380.5528,89.1362 C380.7438,88.4652 380.8878,87.7452 380.9848,86.9762 C381.0788,86.2092 381.2228,85.4882 381.4168,84.8162 L384.2968,76.1762 C384.6788,75.2172 385.1608,73.6802 385.7368,71.5682 L385.8808,70.1282 C385.8808,69.7452 385.7838,68.9762 385.5928,67.8242 C385.4958,67.1532 385.3048,66.6492 385.0168,66.3122 C384.7288,65.9772 384.1528,65.5202 383.2888,64.9442 C383.0948,64.8492 382.8788,64.6562 382.6408,64.3682 C382.3998,64.0802 382.1368,63.8882 381.8488,63.7922 C381.3668,63.6972 380.6468,63.4572 379.6888,63.0722 C378.1518,62.4012 376.9278,61.6812 376.0168,60.9122 C375.1028,60.1452 374.5048,59.1362 374.2168,57.8882 C374.1198,58.0812 373.8318,58.5612 373.3528,59.3282 C373.1588,59.5212 372.8238,60.1452 372.3448,61.2002 C372.0568,61.6812 371.7188,62.1852 371.3368,62.7122 C370.9518,63.2402 370.5668,63.8412 370.1848,64.5122 C369.2238,65.9522 368.3128,67.0562 367.4488,67.8242 C366.9668,68.3052 366.2468,69.3132 365.2888,70.8482 L362.6968,74.4482 C362.5998,74.5452 362.3838,74.8082 362.0488,75.2402 C361.7138,75.6722 361.3778,75.9602 361.0408,76.1042 C360.7058,76.2482 360.3928,76.0812 360.1048,75.6002 C360.0098,75.5052 359.9608,75.3122 359.9608,75.0242 C359.9608,74.4482 360.5858,73.5362 361.8328,72.2882 C362.1208,71.7122 362.4558,71.1362 362.8408,70.5602 C363.2228,69.9842 363.6078,69.4082 363.9928,68.8322 C364.2808,68.1612 364.7598,67.5132 365.4328,66.8882 C366.1028,66.2642 366.5348,65.8572 366.7288,65.6642 C367.3048,64.9932 367.7588,64.3682 368.0968,63.7922 C368.4318,63.2162 368.7448,62.7362 369.0328,62.3522 L371.3368,58.4642 L373.3528,55.2962 C373.8318,54.6252 374.0728,54.0002 374.0728,53.4242 L374.6488,51.4082 C375.1278,49.6802 375.6568,48.3842 376.2328,47.5202 C377.0968,46.0802 377.9608,45.1692 378.8248,44.7842 C379.0158,44.6892 379.4728,44.4482 380.1928,44.0642 C380.9128,43.6812 381.5608,43.4882 382.1368,43.4882 C383.2888,43.4882 384.5348,43.7532 385.8808,44.2802 C387.2238,44.8092 388.1348,45.5532 388.6168,46.5122 C388.9048,46.8972 389.0488,47.5692 389.0488,48.5282 C389.0488,49.3922 388.9518,50.0172 388.7608,50.4002 C388.6638,50.6882 388.5198,51.0012 388.3288,51.3362 C388.1348,51.6732 387.9908,51.9372 387.8968,52.1282 C387.7028,52.4162 387.5368,52.7292 387.3928,53.0642 C387.2488,53.4012 387.0798,53.7122 386.8888,54.0002 C386.0248,55.3452 385.3048,56.6892 384.7288,58.0322 C384.0558,59.6652 384.0558,60.6732 384.7288,61.0562 C385.1118,61.3442 385.8308,61.5852 386.8888,61.7762 L388.9048,62.6402 C390.4388,63.4092 391.5908,64.1292 392.3608,64.8002 C395.2408,67.1042 396.6808,70.3212 396.6808,74.4482 C396.6808,76.5612 396.3428,78.4332 395.6728,80.0642 L394.5208,83.2322 C393.7508,85.7292 393.1278,87.5522 392.6488,88.7042 L391.0648,91.7282 C389.9128,94.0322 389.0958,95.7602 388.6168,96.9122 L387.0328,101.3762 C386.7448,102.0462 386.5508,102.8382 386.4568,103.7522 C386.3598,104.6632 386.2628,105.3582 386.1688,105.8402 L386.1688,106.4162 C386.1688,107.0862 386.3128,107.8062 386.6008,108.5762 C386.8888,109.3432 387.0798,109.8222 387.1768,110.0162 C387.2708,110.3982 387.5588,110.5922 388.0408,110.5922 C388.3288,110.5922 388.6388,110.5202 388.9768,110.3762 C389.3118,110.2322 389.5748,110.1102 389.7688,110.0162 C390.0568,109.9192 390.3448,109.7032 390.6328,109.3682 C390.9208,109.0302 391.1118,108.7672 391.2088,108.5762 L392.6488,107.1362 L395.2408,104.1122 C396.7748,102.0962 397.5918,100.9912 397.6888,100.8002 C397.5918,100.8942 398.5028,99.8392 400.4248,97.6322 C401.0008,97.0562 402.1028,95.7602 403.7368,93.7442 C405.0798,91.8242 405.8468,90.7692 406.0408,90.5762 L407.6248,88.9922 L408.9208,87.4082 C410.2638,85.7772 411.0808,84.7692 411.3688,84.3842 C411.9448,83.5202 412.9998,82.3202 414.5368,80.7842 L417.1288,77.4722 L420.1528,73.5842 C420.2468,73.4892 420.4628,73.2012 420.8008,72.7202 C421.1358,72.2402 421.4708,71.9282 421.8088,71.7842 C422.1438,71.6402 422.5038,71.7612 422.8888,72.1442 C423.0798,72.3372 423.1768,72.5762 423.1768,72.8642 C423.1768,73.2492 422.9828,73.6332 422.6008,74.0162 C422.2158,74.4012 421.9748,74.6892 421.8808,74.8802 L419.7208,77.7602 C419.1448,78.5292 418.4718,79.3932 417.7048,80.3522 C416.9348,81.3132 416.0238,82.3682 414.9688,83.5202 C414.0078,84.4812 413.3348,85.2482 412.9528,85.8242 C412.0888,87.1692 411.4628,87.9842 411.0808,88.2722 C410.3108,89.0412 409.6408,89.8562 409.0648,90.7202 C408.7768,91.1052 408.4388,91.4892 408.0568,91.8722 C407.6718,92.2542 407.2868,92.6862 406.9048,93.1682 L404.6008,96.0482 C403.1608,97.7762 402.3908,98.6872 402.2968,98.7842 C401.7208,99.3602 400.4248,100.9912 398.4088,103.6802 C397.2568,105.2142 395.8638,106.7982 394.2328,108.4322 L392.0728,110.8802 C391.3028,111.5502 390.5828,112.0322 389.9128,112.3202 C389.3368,112.6082 388.7108,112.7522 388.0408,112.7522 C387.4648,112.7522 386.6948,112.6552 385.7368,112.4642" id="Fill-4" fill="#FFFFFF"></path>
                <path d="M443.6235,66.096 C445.0635,64.849 446.2625,63.648 447.2235,62.496 C447.4145,62.304 447.6305,62.041 447.8715,61.704 C448.1095,61.368 448.4225,61.056 448.8075,60.768 C449.4775,60.097 449.8625,59.665 449.9595,59.472 C450.5355,58.513 451.0615,57.362 451.5435,56.016 C451.7345,55.634 451.8785,55.201 451.9755,54.72 C452.0695,54.241 452.1195,53.906 452.1195,53.712 L452.5515,51.696 L452.5515,50.976 C452.5515,49.729 452.2635,48.816 451.6875,48.24 C451.1115,47.664 450.5825,47.376 450.1035,47.376 C449.7185,47.282 449.1425,47.426 448.3755,47.808 C448.0875,48.001 447.8465,48.24 447.6555,48.528 C447.4615,48.816 447.2705,49.056 447.0795,49.248 L446.0715,50.976 L445.6395,51.696 L443.9115,55.728 L443.3355,56.88 C443.0475,57.264 442.9035,57.697 442.9035,58.176 L441.8955,60.624 L441.4635,63.648 C441.2695,64.993 441.0785,66.001 440.8875,66.672 C440.6935,67.633 440.5995,68.353 440.5995,68.832 C441.1755,68.256 442.1835,67.345 443.6235,66.096 M440.5995,92.736 C439.7355,92.542 439.0625,92.351 438.5835,92.16 C438.1025,91.969 437.6695,91.728 437.2875,91.44 C434.8865,89.712 432.8705,87.696 431.2395,85.392 C429.0295,81.842 427.6395,79.2 427.0635,77.472 C426.5815,76.032 426.3435,74.257 426.3435,72.144 L426.4875,68.544 L424.7595,70.992 C424.4715,71.377 424.1835,71.809 423.8955,72.288 C423.6075,72.769 423.2225,73.296 422.7435,73.872 C422.5495,74.065 422.2615,74.448 421.8795,75.024 C421.4965,75.6 421.1115,75.937 420.7275,76.032 L420.4395,76.176 C420.1515,76.176 419.9125,76.056 419.7195,75.816 C419.5275,75.577 419.4315,75.312 419.4315,75.024 C419.4315,74.545 419.9125,73.825 420.8715,72.864 C421.1595,72.288 421.5435,71.762 422.0235,71.28 C423.1755,69.745 423.8955,68.64 424.1835,67.968 C425.4295,66.049 426.1995,64.753 426.4875,64.08 C426.6785,63.601 426.9665,63.072 427.3515,62.496 C427.7335,61.92 428.0215,61.441 428.2155,61.056 C428.5975,59.904 429.2235,58.513 430.0875,56.88 C430.6635,55.634 431.4305,54.481 432.3915,53.424 C433.5435,51.984 435.6065,50.112 438.5835,47.808 C441.2695,45.986 443.8615,44.928 446.3595,44.64 C447.5115,44.449 448.4695,44.352 449.2395,44.352 C450.1975,44.352 451.1335,44.568 452.0475,45 C452.9585,45.432 453.5595,46.08 453.8475,46.944 C454.4235,48.193 454.7115,49.298 454.7115,50.256 C454.7115,51.601 454.5675,52.945 454.2795,54.288 C454.0855,55.44 453.8945,56.209 453.7035,56.592 L452.8395,58.464 C452.0695,60.192 451.3995,61.297 450.8235,61.776 C450.3415,62.16 449.8155,62.689 449.2395,63.36 C448.6635,64.033 448.1815,64.609 447.7995,65.088 L444.4875,67.968 L441.1755,71.136 L440.4555,71.712 C440.3585,72 440.3115,72.385 440.3115,72.864 L440.4555,74.736 L440.3115,76.896 L440.3115,77.184 L440.4555,78.624 C440.4555,79.873 440.6935,81.313 441.1755,82.944 L442.4715,86.832 C443.1415,88.368 443.9585,89.329 444.9195,89.712 C445.7835,90 446.5505,90.144 447.2235,90.144 C448.7575,90.144 450.5825,89.568 452.6955,88.416 C452.8865,88.322 453.1745,88.178 453.5595,87.984 C453.9415,87.793 454.2795,87.552 454.5675,87.264 L456.0075,85.68 L457.1595,84.24 C457.4475,83.952 457.7105,83.713 457.9515,83.52 C458.1895,83.329 458.4055,83.138 458.5995,82.944 C458.9815,82.561 459.4135,82.129 459.8955,81.648 C460.3745,81.169 460.8535,80.593 461.3355,79.92 C462.2935,78.576 463.1575,77.569 463.9275,76.896 C464.1185,76.705 464.3095,76.489 464.5035,76.248 C464.6945,76.01 464.9355,75.744 465.2235,75.456 C465.4145,75.264 465.5835,75.001 465.7275,74.664 C465.8715,74.329 466.0375,74.065 466.2315,73.872 C466.4225,73.68 466.7355,73.296 467.1675,72.72 C467.5995,72.144 468.0535,71.856 468.5355,71.856 C468.9175,71.856 469.1835,71.977 469.3275,72.216 C469.4715,72.457 469.5435,72.625 469.5435,72.72 C469.5435,73.201 469.2775,73.728 468.7515,74.304 C468.2225,74.88 467.9095,75.264 467.8155,75.456 C466.6635,76.992 465.7495,78.097 465.0795,78.768 C464.5975,79.249 464.0465,79.897 463.4235,80.712 C462.7975,81.529 462.2465,82.224 461.7675,82.8 C461.4795,83.185 460.9985,83.664 460.3275,84.24 C459.6545,84.816 459.0785,85.345 458.5995,85.824 C458.4055,86.017 458.0235,86.521 457.4475,87.336 C456.8715,88.153 456.2455,88.801 455.5755,89.28 C454.7115,89.856 453.4155,90.625 451.6875,91.584 C450.0535,92.542 447.8945,93.024 445.2075,93.024 C443.2855,93.024 441.7515,92.927 440.5995,92.736" id="Fill-6" fill="#FFFFFF"></path>
                <path d="M511.5903,93.4559 C508.7103,92.3039 506.6223,91.0079 505.3263,89.5679 C504.0303,88.1279 503.0943,86.0649 502.5183,83.3759 C502.3253,82.8969 502.1093,82.3459 501.8703,81.7199 C501.6303,81.0969 501.4133,80.3519 501.2223,79.4879 L500.3583,75.4559 C500.2613,74.9769 500.2143,74.2569 500.2143,73.2959 C500.2143,72.4319 500.4533,70.2249 500.9343,66.6719 L498.0543,70.7039 L495.0303,74.4479 C493.7813,75.8879 492.4383,76.6579 490.9983,76.7519 C490.1343,77.0399 489.5583,77.1839 489.2703,77.1839 L487.2543,77.0399 C486.5813,76.9459 485.7653,76.7769 484.8063,76.5359 C483.8453,76.2979 483.1263,76.0319 482.6463,75.7439 C481.2063,74.7859 480.1013,73.7279 479.3343,72.5759 C479.0463,72.1939 478.5423,71.4239 477.8223,70.2719 C477.1023,69.1199 476.5733,68.0649 476.2383,67.1039 C475.9013,66.1449 475.7813,65.1849 475.8783,64.2239 C475.2053,65.3759 474.1013,67.0099 472.5663,69.1199 C472.2783,69.6019 471.7493,70.3219 470.9823,71.2799 C470.7893,71.4739 470.5723,71.7369 470.3343,72.0719 C470.0933,72.4099 469.8303,72.7689 469.5423,73.1519 C468.7733,74.3039 468.1023,75.1929 467.5263,75.8159 C466.9503,76.4409 466.4233,76.3699 465.9423,75.5999 C465.8483,75.5049 465.7983,75.3119 465.7983,75.0239 C465.7983,74.7359 466.0393,74.2569 466.5183,73.5839 L468.2463,71.2799 L470.1183,69.1199 C470.7893,67.8729 471.2703,67.1539 471.5583,66.9599 C472.2293,66.1929 472.8293,65.3039 473.3583,64.2959 C473.8843,63.2879 474.2453,62.5929 474.4383,62.2079 C474.7263,61.6319 475.1813,60.8899 475.8063,59.9759 C476.4293,59.0649 476.8863,58.2259 477.1743,57.4559 C477.7503,55.7279 478.5653,53.9999 479.6223,52.2719 C481.3503,49.9679 483.5573,48.2399 486.2463,47.0879 C486.6293,46.9939 487.6863,46.6089 489.4143,45.9359 C491.1423,45.2659 492.8703,44.9279 494.5983,44.9279 C495.8453,44.9279 497.0693,45.1439 498.2703,45.5759 C499.4693,46.0079 500.4533,46.6089 501.2223,47.3759 C502.0863,48.4339 502.5183,49.3919 502.5183,50.2559 C502.5183,51.1199 502.2303,51.5519 501.6543,51.5519 C500.9823,51.5519 500.5493,51.2169 500.3583,50.5439 C500.0703,49.2009 499.2543,48.2889 497.9103,47.8079 C497.5263,47.6169 496.9023,47.5199 496.0383,47.5199 C495.7503,47.6169 495.4853,47.7859 495.2463,48.0239 C495.0063,48.2649 494.7893,48.4339 494.5983,48.5279 C492.2943,50.5439 490.8053,52.8969 490.1343,55.5839 C490.0373,55.8719 489.6063,57.3619 488.8383,60.0479 C488.4533,62.2579 488.2133,63.7919 488.1183,64.6559 C488.0223,65.5199 487.9023,66.5049 487.7583,67.6079 C487.6143,68.7129 487.5423,69.6489 487.5423,70.4159 C487.5423,71.5679 487.7343,72.5759 488.1183,73.4399 C488.2133,73.6339 488.4783,73.7999 488.9103,73.9439 C489.3423,74.0879 489.7023,74.1599 489.9903,74.1599 L490.9983,74.3039 C491.6693,74.3039 492.2693,74.0649 492.7983,73.5839 C493.3253,73.1049 493.7813,72.6249 494.1663,72.1439 C494.5483,71.6649 494.7893,71.3299 494.8863,71.1359 C496.4213,69.3129 497.3823,68.0649 497.7663,67.3919 C497.9573,67.2009 498.2933,66.7689 498.7743,66.0959 C499.2543,65.4259 499.5893,64.7529 499.7823,64.0799 C499.9733,63.6979 500.2863,63.1439 500.7183,62.4239 C501.1503,61.7039 501.4133,61.0559 501.5103,60.4799 C501.6053,60.0009 501.7263,59.4969 501.8703,58.9679 C502.0143,58.4409 502.1333,57.9369 502.2303,57.4559 C502.3253,56.7859 502.6623,56.1599 503.2383,55.5839 C503.3333,55.4899 503.4543,55.2729 503.5983,54.9359 C503.7423,54.6009 503.9583,54.3849 504.2463,54.2879 L505.2543,54.1439 C505.4453,54.1439 506.2623,54.2879 507.7023,54.5759 C509.5253,55.1519 510.9653,55.7779 512.0223,56.4479 C512.4043,56.6419 512.8863,57.0239 513.4623,57.5999 C513.5573,57.9849 513.5813,58.3699 513.5343,58.7519 C513.4853,59.1369 513.5093,59.5209 513.6063,59.9039 C513.7013,61.7289 513.6063,63.6729 513.3183,65.7359 C513.0303,67.8019 512.8373,69.0249 512.7423,69.4079 L512.3103,74.4479 L511.8783,79.0559 C511.6853,81.1689 511.5903,82.7059 511.5903,83.6639 L511.4463,85.8239 L511.4463,86.9759 L511.4463,87.4079 C511.5413,88.4659 511.6853,89.3299 511.8783,89.9999 C512.0693,90.6729 512.4543,91.1519 513.0303,91.4399 C513.4133,91.6339 513.7503,91.7279 514.0383,91.7279 C514.9023,91.7279 515.8143,91.3459 516.7743,90.5759 C518.8843,88.9449 520.1813,87.8899 520.6623,87.4079 C521.1413,86.9289 521.6933,86.4499 522.3183,85.9679 C522.9423,85.4889 523.4933,85.0099 523.9743,84.5279 C525.7023,82.5119 526.7103,81.3129 526.9983,80.9279 C527.4773,80.4489 527.9573,79.9699 528.4383,79.4879 L529.8783,78.0479 L532.6143,74.1599 C533.8613,72.2409 534.8693,71.5209 535.6383,71.9999 C536.0213,72.0969 536.2143,72.3369 536.2143,72.7199 C536.2143,73.1049 535.9733,73.5369 535.4943,74.0159 C535.0133,74.4979 534.7253,74.8329 534.6303,75.0239 C534.2453,75.7929 533.9103,76.3199 533.6223,76.6079 L532.3263,78.1919 C530.5983,80.2079 529.6853,81.2659 529.5903,81.3599 C529.2053,81.7449 528.7983,82.2489 528.3663,82.8719 C527.9343,83.4979 527.5253,83.9519 527.1423,84.2399 C526.7573,84.6249 526.2783,85.1289 525.7023,85.7519 C525.1263,86.3769 524.5973,86.8319 524.1183,87.1199 L520.9503,89.9999 C520.5663,90.2879 520.0373,90.7199 519.3663,91.2959 C518.6943,91.8719 518.1173,92.3039 517.6383,92.5919 L515.7663,93.5999 C514.9973,93.7909 514.4213,93.8879 514.0383,93.8879 L513.7503,93.8879 C512.7893,93.8879 512.0693,93.7439 511.5903,93.4559" id="Fill-8" fill="#FFFFFF"></path>
                <path d="M599.2856,33.264 C599.2856,33.84 599.0446,34.225 598.5656,34.416 C597.3166,34.801 595.8766,34.992 594.2456,34.992 C593.4766,35.089 592.3246,35.136 590.7896,35.136 L584.7416,35.424 L580.9976,35.856 C579.5576,36.05 577.5896,36.241 575.0936,36.432 C572.7896,36.529 569.3336,36.576 564.7256,36.576 L563.2856,36.576 C562.9976,37.634 562.5166,40.417 561.8456,44.928 C561.4606,46.944 561.2206,48.577 561.1256,49.824 C561.0296,50.785 560.8856,51.817 560.6936,52.92 C560.5006,54.025 560.4526,54.864 560.5496,55.44 C560.5496,56.592 560.4056,58.32 560.1176,60.624 C560.0206,61.2 559.8766,62.208 559.6856,63.648 C559.4926,65.088 559.3976,66.384 559.3976,67.536 C559.3976,69.169 559.2046,71.521 558.8216,74.592 C558.5336,76.129 558.3406,77.497 558.2456,78.696 C558.1486,79.897 558.0526,80.881 557.9576,81.648 L557.6696,85.248 C557.4766,85.921 557.3816,87.025 557.3816,88.56 C557.2856,89.329 557.2606,90.025 557.3096,90.648 C557.3566,91.273 557.3816,91.825 557.3816,92.304 C557.3816,92.974 557.2376,94.032 556.9496,95.472 L556.9496,96.768 C556.9496,97.726 556.9966,98.447 557.0936,98.928 C557.0936,99.504 557.1886,100.127 557.3816,100.8 C557.5736,101.471 557.7176,101.952 557.8136,102.24 C558.0056,103.68 558.2456,104.735 558.5336,105.408 L558.9656,106.416 C559.1576,106.704 559.3476,106.942 559.5416,107.136 C560.5976,107.518 561.7016,107.712 562.8536,107.712 C564.8696,107.712 566.7416,107.23 568.4696,106.272 C570.1976,105.311 572.4056,103.871 575.0936,101.952 C576.3406,101.088 577.6366,100.031 578.9816,98.784 C580.3256,97.535 581.2366,96.671 581.7176,96.192 C583.9256,94.27 585.7976,92.207 587.3336,90 C587.7166,89.424 588.1006,89.136 588.4856,89.136 C589.2526,89.136 589.6376,89.473 589.6376,90.144 C589.6376,90.529 589.4696,90.889 589.1336,91.224 C588.7966,91.561 588.5806,91.825 588.4856,92.016 C588.2926,92.398 587.8606,92.927 587.1896,93.6 C585.3656,95.807 583.3486,97.823 581.1416,99.648 C580.7576,100.031 580.2286,100.535 579.5576,101.16 C578.8856,101.783 578.2616,102.287 577.6856,102.672 C577.1096,103.151 576.5096,103.608 575.8856,104.04 C575.2606,104.472 574.6616,104.927 574.0856,105.408 C573.6046,105.79 573.1006,106.2 572.5736,106.632 C572.0446,107.064 571.4446,107.518 570.7736,108 C570.4856,108.191 569.9566,108.551 569.1896,109.08 C568.4206,109.606 567.7006,109.967 567.0296,110.16 C564.3416,110.83 562.4216,111.168 561.2696,111.168 C560.6936,111.168 560.0206,111.071 559.2536,110.88 C557.1406,110.495 555.0286,109.487 552.9176,107.856 C551.5726,106.799 550.4696,105.552 549.6056,104.112 C548.8366,102.96 548.1166,101.471 547.4456,99.648 C546.8696,98.496 546.4856,97.632 546.2936,97.056 C546.1976,96.671 546.1006,96.167 546.0056,95.544 C545.9096,94.918 545.8616,94.464 545.8616,94.176 C545.6686,93.024 545.5736,92.207 545.5736,91.728 L545.5736,91.296 L545.7176,88.992 C545.5246,87.649 545.4296,86.544 545.4296,85.68 C545.4296,83.952 545.6206,81.554 546.0056,78.48 L546.8696,70.992 C547.0606,69.649 547.1576,68.64 547.1576,67.968 C547.3486,66.722 547.5406,64.944 547.7336,62.64 C547.8286,61.105 548.1166,59.472 548.5976,57.744 C548.9806,56.401 549.2216,55.393 549.3176,54.72 C549.1246,55.008 548.4046,56.401 547.1576,58.896 L545.8616,60.48 L544.7096,62.208 C544.4216,62.593 544.0616,63.05 543.6296,63.576 C543.1976,64.105 542.7416,64.705 542.2616,65.376 L540.1016,68.688 L537.5096,71.712 L534.3416,75.6 L534.6296,75.168 C534.5356,75.362 534.4386,75.505 534.3416,75.6 C534.0536,75.888 533.7656,76.032 533.4776,76.032 C532.9986,76.032 532.6636,75.841 532.4696,75.456 C532.2786,75.074 532.3756,74.641 532.7576,74.16 L535.7816,70.704 C536.0696,70.322 536.5016,69.793 537.0776,69.12 C537.6536,68.45 538.0856,67.824 538.3736,67.248 C538.8526,66.577 539.3096,65.93 539.7416,65.304 C540.1736,64.681 540.6286,64.033 541.1096,63.36 C543.5086,60.289 545.0926,57.985 545.8616,56.448 C546.2436,55.681 546.9166,54.529 547.8776,52.992 C548.9326,51.264 549.7496,49.68 550.3256,48.24 L550.3256,48.096 L552.6296,39.168 L553.3496,36.432 L550.6136,36.576 C548.5006,36.576 546.9166,36.529 545.8616,36.432 L537.6536,36.432 C534.3916,36.432 531.9436,36.481 530.3096,36.576 C527.0476,36.769 524.5996,36.864 522.9656,36.864 C520.6616,36.864 518.3576,36.72 516.0536,36.432 C514.8076,36.337 513.2226,36.169 511.3016,35.928 C509.3826,35.689 507.7986,35.521 506.5496,35.424 C506.0706,35.424 504.8216,35.329 502.8056,35.136 C500.7896,34.945 498.9176,34.609 497.1896,34.128 C496.8076,34.034 496.5666,33.84 496.4696,33.552 C496.3756,33.264 496.4226,32.929 496.6136,32.544 C496.9016,32.161 497.2616,32.017 497.6936,32.112 C498.1256,32.209 498.3916,32.256 498.4856,32.256 C499.7346,32.544 501.1496,32.76 502.7336,32.904 C504.3176,33.048 505.4476,33.169 506.1176,33.264 C508.9976,33.457 511.1576,33.649 512.5976,33.84 C516.4386,34.322 519.7976,34.56 522.6776,34.56 C526.0396,34.56 528.5816,34.513 530.3096,34.416 L537.7976,34.272 L548.1656,34.416 L553.7816,34.416 C553.9726,33.937 554.1886,33.336 554.4296,32.616 C554.6686,31.896 554.8846,31.104 555.0776,30.24 C555.3656,29.088 555.7016,27.457 556.0856,25.344 C556.1806,24.386 556.4206,22.946 556.8056,21.024 C556.9006,20.833 556.9966,20.497 557.0936,20.016 C557.1886,19.536 557.2856,19.249 557.3816,19.152 C557.7646,18.961 558.0526,18.864 558.2456,18.864 C559.1096,18.864 560.4056,19.152 562.1336,19.728 C563.8616,20.209 564.9646,20.88 565.4456,21.744 L565.4456,22.176 L565.3016,23.76 C565.1086,24.721 565.0136,25.488 565.0136,26.064 C564.8206,27.025 564.6286,28.368 564.4376,30.096 C564.2436,31.824 564.0056,33.264 563.7176,34.416 L572.0696,34.416 C575.2376,34.322 578.5006,34.034 581.8616,33.552 C583.8776,33.361 587.0936,33.169 591.5096,32.976 C593.5256,32.976 595.0136,32.882 595.9736,32.688 C596.2616,32.688 596.6216,32.616 597.0536,32.472 C597.4856,32.328 597.8926,32.256 598.2776,32.256 C598.9486,32.256 599.2856,32.594 599.2856,33.264" id="Fill-10" fill="#FFFFFF"></path>
                <path d="M668.6187,51.6239 C668.8567,52.4409 669.0257,53.0409 669.1227,53.4239 C669.5057,53.0409 670.0097,52.4659 670.6357,51.6959 C671.2587,50.9289 671.7627,50.2089 672.1467,49.5359 C672.3387,49.2479 672.4347,48.7689 672.4347,48.0959 C672.4347,47.5199 672.3387,47.0159 672.1467,46.5839 C671.9537,46.1519 671.8587,45.8889 671.8587,45.7919 C671.6657,45.4099 671.3547,45.1439 670.9237,44.9999 C670.4907,44.8559 669.9867,44.9279 669.4107,45.2159 C669.0257,45.4099 668.7857,45.6979 668.6907,46.0799 C668.5947,46.4649 668.5477,46.8499 668.5477,47.2319 C668.3527,48.1929 668.2597,48.9129 668.2597,49.3919 C668.2597,50.0649 668.3787,50.8099 668.6187,51.6239 M664.5147,119.5199 C661.2507,120.0959 658.7557,120.8159 657.0267,121.6799 C656.0657,122.2559 655.2027,122.9759 654.4347,123.8399 C654.3387,124.0309 654.1227,124.2939 653.7867,124.6319 C653.4497,124.9669 653.2827,125.3269 653.2827,125.7119 C653.2827,125.9029 653.4737,126.0719 653.8587,126.2159 C654.2417,126.3599 654.6267,126.3829 655.0117,126.2879 C657.2187,126.1909 659.3307,125.2799 661.3477,123.5519 C661.9237,123.0709 662.9777,121.7279 664.5147,119.5199 M722.8347,130.8959 C722.8347,131.4719 722.6907,131.9039 722.4027,132.1919 C722.2097,132.3829 721.8987,132.4559 721.4677,132.4079 C721.0347,132.3579 720.7687,132.1919 720.6757,131.9039 C720.5787,131.7099 720.5307,131.4229 720.5307,131.0399 C720.5307,129.9819 720.2907,129.2149 719.8107,128.7359 C718.4657,127.5839 717.4577,126.8139 716.7867,126.4319 C716.0167,125.9509 715.3477,125.5189 714.7707,125.1359 C714.1947,124.7509 713.6667,124.4159 713.1867,124.1279 C712.7057,123.8399 712.0567,123.5519 711.2427,123.2639 C710.4267,122.9759 709.7777,122.7349 709.2997,122.5439 C708.3387,122.1589 706.8977,121.6799 704.9787,121.1039 C704.3067,120.9109 703.5867,120.6949 702.8187,120.4559 C702.0497,120.2149 701.4267,120.0459 700.9467,119.9519 C700.0827,119.8549 699.2657,119.7109 698.4987,119.5199 C697.7287,119.3269 696.9147,119.1829 696.0517,119.0879 L691.5867,118.6559 C690.8177,118.5599 689.7157,118.5119 688.2747,118.5119 L683.8107,118.5119 L682.5147,118.5119 L681.2197,118.5119 C679.6817,118.5119 678.5297,118.5599 677.7637,118.6559 C676.9937,118.6559 676.2507,118.7029 675.5307,118.7999 C674.8107,118.8949 674.0657,118.9439 673.2997,118.9439 L670.7067,119.0879 L669.1227,120.5279 C667.7777,121.8719 666.7227,122.8319 665.9547,123.4079 C665.0917,124.1749 663.7947,124.9919 662.0667,125.8559 L660.4827,126.7199 C660.2897,126.8139 660.0517,126.9579 659.7637,127.1519 C659.4747,127.3429 659.2337,127.4869 659.0427,127.5839 C658.7557,127.6789 658.1067,127.8469 657.0987,128.0879 C656.0917,128.3269 655.1547,128.4479 654.2907,128.4479 C652.9457,128.4479 652.0347,128.0159 651.5547,127.1519 C651.2667,126.7679 651.1227,126.3349 651.1227,125.8559 C651.1227,124.9919 651.5057,124.0559 652.2747,123.0479 C653.0427,122.0399 653.8587,121.1989 654.7227,120.5279 C655.3927,120.0459 656.8337,119.4229 659.0427,118.6559 C660.7707,118.0799 662.1137,117.6949 663.0747,117.5039 C663.3627,117.4069 663.8667,117.2879 664.5867,117.1439 C665.3067,116.9999 665.9057,116.9279 666.3877,116.9279 L666.6757,116.3519 L668.2597,113.0399 L668.6907,112.1759 L669.4107,110.0159 C669.6017,109.4399 669.7937,108.3829 669.9867,106.8479 C670.0817,106.0789 670.2507,105.0479 670.4907,103.7519 C670.7287,102.4559 670.8507,101.3269 670.8507,100.3679 L671.2827,93.7439 C671.2827,93.3589 671.2337,92.4959 671.1397,91.1519 C671.0427,89.8089 670.8017,88.5599 670.4187,87.4079 C669.7467,85.3919 669.1707,83.1849 668.6907,80.7839 C668.6907,80.4959 668.6407,80.0169 668.5477,79.3439 C668.4497,78.6739 668.3067,78.0979 668.1147,77.6159 C668.0177,77.2329 667.6337,76.2729 666.9637,74.7359 C666.6757,73.8719 665.8577,71.7619 664.5147,68.3999 C662.9777,65.4259 662.0667,63.3129 661.7787,62.0639 L661.4907,61.3439 C660.6267,62.2079 659.1377,63.3129 657.0267,64.6559 C656.2577,65.1379 655.2997,65.6889 654.1467,66.3119 C652.9947,66.9369 652.0817,67.3919 651.4107,67.6799 C649.9707,68.5439 648.3627,69.3609 646.5867,70.1279 C644.8097,70.8969 643.5857,71.4239 642.9147,71.7119 L639.3147,73.2959 L638.7387,73.4399 C638.3567,73.4399 638.0437,73.2489 637.8027,72.8639 C637.5647,72.4809 637.5867,72.0969 637.8747,71.7119 C638.0687,71.3299 638.6447,71.0409 639.6027,70.8479 L641.7627,69.9839 C644.7377,68.7379 647.4267,67.4409 649.8267,66.0959 C650.4027,65.8079 651.4827,65.2569 653.0667,64.4399 C654.6507,63.6249 656.0187,62.7839 657.1717,61.9199 C659.0907,60.4799 660.1947,59.6159 660.4827,59.3279 L660.9147,58.8959 L660.7707,58.3199 C660.6747,57.9369 660.6487,57.6249 660.6987,57.3839 C660.7467,57.1449 660.7707,56.9769 660.7707,56.8799 C660.6747,56.2089 660.6267,55.2489 660.6267,53.9999 C660.6267,52.2719 661.0097,50.8319 661.7787,49.6799 C663.1227,47.3759 663.9387,46.1289 664.2267,45.9359 C665.9547,44.4019 667.0567,43.5379 667.5387,43.3439 C668.9787,42.8649 669.9867,42.6239 670.5627,42.6239 C671.4277,42.6239 672.1937,42.9369 672.8667,43.5599 C673.5377,44.1859 674.0187,44.9279 674.3067,45.7919 C674.4987,46.5619 674.5957,47.1849 674.5957,47.6639 C674.5957,48.7219 674.3297,49.7049 673.8037,50.6159 C673.2737,51.5299 672.5297,52.6569 671.5707,53.9999 L669.9867,55.8719 L670.8507,57.7439 C671.2337,58.5139 671.9057,59.6659 672.8667,61.1999 C673.4427,62.0639 674.4017,63.3599 675.7467,65.0879 L678.1947,68.6879 C678.4827,69.1689 678.9147,69.7679 679.4907,70.4879 C680.0667,71.2079 680.4987,71.8559 680.7867,72.4319 L682.6587,76.3199 L684.2427,80.7839 C684.6257,81.7449 684.9137,83.1849 685.1067,85.1039 C685.2017,85.7769 685.2987,86.3059 685.3947,86.6879 C685.4897,87.0729 685.5387,87.4569 685.5387,87.8399 L685.3947,89.8559 L685.1067,94.3199 C684.8187,97.1999 684.0027,100.2239 682.6587,103.3919 C681.4107,106.1749 679.9707,108.6699 678.3397,110.8799 L676.6107,112.8959 C676.1297,113.4719 674.8837,114.7679 672.8667,116.7839 L676.3227,116.6399 C677.8567,116.4469 679.0097,116.3519 679.7787,116.3519 L683.2347,116.3519 C683.6177,116.3519 684.1457,116.3739 684.8187,116.4239 C685.4897,116.4709 686.0647,116.4469 686.5477,116.3519 C686.9297,116.2549 687.5557,116.2079 688.4187,116.2079 C689.4737,116.2079 690.3627,116.2549 691.0827,116.3519 C691.8037,116.4469 692.4017,116.5429 692.8837,116.6399 C693.7467,116.7339 694.8267,116.8559 696.1227,116.9999 C697.4187,117.1439 698.4497,117.2159 699.2197,117.2159 C702.1937,117.5039 705.2177,118.1749 708.2907,119.2319 C709.1547,119.5199 709.9467,119.8079 710.6667,120.0959 C711.3877,120.3839 712.0827,120.6229 712.7557,120.8159 C713.3307,121.0069 713.9547,121.3429 714.6267,121.8239 C715.2977,122.3029 715.8737,122.6879 716.3547,122.9759 C719.7147,124.8949 721.7297,126.8139 722.4027,128.7359 C722.6907,129.8879 722.8347,130.6079 722.8347,130.8959" id="Fill-12" fill="#FFFFFF"></path>
                <path d="M711.6021,92.304 C710.3531,91.728 709.2011,91.008 708.1461,90.144 L706.7061,88.848 L706.1291,88.128 L705.8411,87.984 C705.5541,87.601 705.1941,87.145 704.7611,86.616 C704.3301,86.09 703.9691,85.585 703.6821,85.104 C702.8181,83.761 702.3361,82.512 702.2421,81.36 C701.9541,79.92 701.8101,78.386 701.8101,76.752 C701.8101,75.697 701.9541,74.592 702.2421,73.44 C702.3361,72.769 702.4331,72.121 702.5301,71.496 C702.6241,70.873 702.7211,70.225 702.8181,69.552 C703.1061,68.305 703.5851,67.01 704.2571,65.664 C704.9281,64.321 705.6011,63.265 706.2741,62.496 L709.1541,59.616 C710.1121,58.752 711.1691,58.081 712.3221,57.6 C712.8011,57.312 713.2331,57.121 713.6181,57.024 C714.0001,56.929 714.3371,56.833 714.6251,56.736 L716.4981,56.016 C717.3621,55.634 718.8491,55.44 720.9611,55.44 C722.5931,55.634 723.8891,56.016 724.8501,56.592 C726.5781,57.744 727.4421,59.616 727.4421,62.208 C727.4421,63.072 727.3921,63.744 727.2971,64.224 C727.2011,64.417 727.0321,64.944 726.7931,65.808 C726.5531,66.672 726.0961,67.104 725.4251,67.104 C724.9441,67.104 724.6091,66.937 724.4171,66.6 C724.2241,66.264 724.2241,65.905 724.4171,65.52 C725.0881,64.465 725.4251,63.36 725.4251,62.208 C725.4251,60.961 724.9941,60.001 724.1291,59.328 C723.8411,59.04 723.4561,58.896 722.9781,58.896 C721.5381,58.896 720.1921,60.336 718.9461,63.216 C718.5611,63.888 718.2481,64.634 718.0091,65.448 C717.7691,66.264 717.6001,66.816 717.5051,67.104 C717.3121,67.585 717.0961,68.137 716.8581,68.76 C716.6171,69.386 716.4011,70.033 716.2091,70.704 C715.6331,72.432 715.1521,75.168 714.7701,78.912 L714.6251,80.496 C714.6251,81.072 714.7201,82.033 714.9141,83.376 L715.2021,85.536 L715.4901,86.976 C716.6421,88.322 717.3121,89.089 717.5051,89.28 C718.5611,90.144 719.6171,90.576 720.6731,90.576 L720.9611,90.576 C722.3051,90.576 723.4561,90.337 724.4171,89.856 L727.5851,88.272 C728.3531,87.601 729.2421,86.76 730.2491,85.752 C731.2571,84.744 732.0001,83.952 732.4821,83.376 C732.9611,82.897 733.3931,82.368 733.7781,81.792 C734.1611,81.216 734.5921,80.689 735.0741,80.208 C735.4561,79.825 735.9851,79.368 736.6581,78.84 C737.3291,78.313 737.8571,77.809 738.2421,77.328 L741.2661,73.728 C741.3601,73.634 741.6011,73.346 741.9861,72.864 C742.3691,72.385 742.7281,72.05 743.0661,71.856 C743.4011,71.665 743.7611,71.762 744.1461,72.144 C744.3371,72.337 744.4341,72.576 744.4341,72.864 C744.4341,73.249 744.1681,73.728 743.6421,74.304 C743.1131,74.88 742.8001,75.264 742.7061,75.456 C740.8811,77.569 739.9201,78.674 739.8261,78.768 C739.5381,79.249 739.0341,79.776 738.3141,80.352 C737.5931,80.928 737.0401,81.409 736.6581,81.792 C736.1761,82.177 735.3621,83.185 734.2091,84.816 L731.0411,87.984 C730.7531,88.272 730.2971,88.704 729.6731,89.28 C729.0481,89.856 728.4971,90.288 728.0181,90.576 C727.5371,90.864 726.1931,91.49 723.9861,92.448 C722.5451,93.118 721.2011,93.503 719.9541,93.6 C717.3621,93.888 714.5771,93.456 711.6021,92.304" id="Fill-14" fill="#FFFFFF"></path>
                <path d="M766.897,89.5677 L768.481,88.7037 C768.96,88.5127 769.295,88.3217 769.489,88.1277 L770.21,87.1197 C770.591,86.6407 770.952,86.2087 771.29,85.8237 C771.625,85.4417 771.984,85.0097 772.369,84.5277 C770.929,84.3367 769.872,83.8577 769.201,83.0877 C768.914,82.6087 768.769,82.1297 768.769,81.6477 C768.769,81.0717 768.914,80.5927 769.201,80.2077 C769.777,79.6317 770.448,79.3437 771.217,79.3437 C772.463,79.3437 773.377,79.8727 773.953,80.9277 C774.335,79.7757 774.673,78.3857 774.961,76.7517 L775.25,72.8637 C775.343,72.5757 775.393,72.0967 775.393,71.4237 C775.393,70.9447 775.296,70.2247 775.105,69.2637 C774.72,67.6327 774.48,66.5277 774.385,65.9517 C774.289,64.8967 773.712,63.8417 772.657,62.7837 C772.369,62.4957 772.032,62.1357 771.649,61.7037 C771.264,61.2717 770.833,61.0087 770.353,60.9117 C769.201,60.7207 768.481,60.6237 768.193,60.6237 C767.617,60.6237 767.232,60.6737 767.042,60.7677 C765.313,61.0557 763.967,61.7757 763.009,62.9277 L761.281,65.2317 L760.418,66.5277 L759.985,67.8237 C759.6,68.6877 759.312,69.5517 759.122,70.4157 C758.352,73.7777 757.919,75.5997 757.825,75.8877 L757.25,78.4797 L757.25,81.5037 L757.25,82.9437 C757.25,84.7687 757.538,86.0647 758.113,86.8317 C758.784,87.7927 759.36,88.5127 759.841,88.9917 C760.321,89.4737 760.993,89.8087 761.857,89.9997 L763.297,90.1437 C764.161,90.1437 765.361,89.9527 766.897,89.5677 M753.865,92.3037 C751.608,91.3457 749.856,89.9527 748.609,88.1277 C747.073,86.1117 746.209,84.9127 746.017,84.5277 C745.536,83.8577 745.201,82.6087 745.009,80.7837 L744.865,77.4717 L744.865,75.8877 C744.865,74.4477 745.056,73.1047 745.441,71.8557 C744.671,72.6257 743.952,73.5837 743.281,74.7357 C742.802,75.4087 742.37,75.8657 741.985,76.1037 C741.603,76.3447 741.218,76.1757 740.834,75.5997 C740.739,75.5047 740.689,75.3117 740.689,75.0237 C740.689,74.5447 740.955,74.0157 741.481,73.4397 C742.01,72.8637 742.323,72.4817 742.418,72.2877 L744.721,69.2637 C745.104,68.7847 745.777,67.8957 746.737,66.5997 C747.696,65.3037 748.704,64.2237 749.761,63.3597 C750.337,62.8807 751.223,62.0637 752.425,60.9117 C753.625,59.7597 754.801,58.8957 755.953,58.3197 C758.545,56.7857 761.376,56.1597 764.449,56.4477 C766.177,56.6417 767.423,56.9297 768.193,57.3117 C768.672,57.5047 769.273,57.7437 769.993,58.0317 C770.713,58.3197 771.312,58.6077 771.793,58.8957 C772.369,59.2807 773.328,60.2417 774.673,61.7757 C775.825,63.1217 776.401,64.2737 776.401,65.2317 C776.496,65.8077 776.665,66.5277 776.905,67.3917 C777.144,68.2557 777.312,68.9287 777.409,69.4077 L777.553,71.4237 L777.409,73.4397 C777.215,75.5527 777.024,77.1367 776.834,78.1917 C776.737,78.9617 776.545,79.7757 776.257,80.6397 C775.969,81.5037 775.776,82.1297 775.681,82.5117 C779.329,82.5117 782.305,81.9357 784.609,80.7837 C785.376,80.4017 786.626,79.5377 788.353,78.1917 C789.887,77.0397 791.04,76.0817 791.809,75.3117 L793.393,73.4397 C793.969,72.6727 794.401,72.1937 794.689,71.9997 C794.784,71.9057 794.927,71.8557 795.122,71.8557 C795.697,71.8557 796.033,72.0497 796.129,72.4317 L796.273,72.8637 C796.273,73.0577 796.201,73.2487 796.057,73.4397 C795.914,73.6337 795.792,73.8247 795.697,74.0157 C795.409,74.3037 794.953,74.8327 794.33,75.5997 C793.704,76.3697 793.105,76.9927 792.529,77.4717 C792.047,77.9537 790.848,78.9117 788.929,80.3517 L788.785,80.4957 C787.537,81.5537 786.431,82.3207 785.473,82.7997 C784.224,83.3757 782.832,83.8077 781.297,84.0957 C780.528,84.2897 779.087,84.4807 776.977,84.6717 L776.545,84.6717 C775.776,84.6717 775.272,84.7217 775.033,84.8157 C774.793,84.9127 774.601,85.0817 774.458,85.3197 C774.313,85.5607 774.192,85.7297 774.097,85.8237 L771.361,89.1357 C771.073,89.6177 770.664,90.0247 770.137,90.3597 C769.608,90.6977 769.057,91.0077 768.481,91.2957 C768.096,91.4897 767.808,91.6807 767.617,91.8717 C767.423,92.0637 767.232,92.2077 767.042,92.3037 C766.847,92.4957 766.224,92.7827 765.169,93.1677 C764.785,93.2627 764.161,93.4557 763.297,93.7437 C762.433,94.0317 761.664,94.1267 760.993,94.0317 C758.496,93.8387 756.12,93.2627 753.865,92.3037" id="Fill-16" fill="#FFFFFF"></path>
                <path d="M876.7671,36.1439 C872.1591,35.8559 867.5981,35.7119 863.0871,35.7119 L860.0631,35.8559 L853.8711,35.7119 C852.5261,35.7119 850.6061,35.6179 848.1111,35.4239 L844.2231,35.2799 C838.8451,35.0889 834.7191,34.9919 831.8391,34.9919 L828.3831,34.9919 L823.6311,34.7039 L823.4871,35.4239 C822.7171,38.5919 822.1411,41.7599 821.7591,44.9279 L821.1831,49.8239 C820.7021,52.1279 820.5101,53.6179 820.6071,54.2879 L820.7511,55.5839 C820.7511,56.9299 820.3671,59.8099 819.5991,64.2239 C819.5021,64.8969 819.4541,65.9519 819.4541,67.3919 C819.4541,69.6019 819.2141,71.9999 818.7351,74.5919 C818.5411,75.7439 818.4221,76.7519 818.3751,77.6159 C818.3261,78.4799 818.3031,79.1999 818.3031,79.7759 C818.2061,80.6399 818.1101,81.5039 818.0151,82.3679 C817.9181,83.2319 817.8221,84.0959 817.7271,84.9599 C817.4391,86.7849 817.2951,88.6089 817.2951,90.4319 C817.2951,92.4479 817.1991,93.9819 817.0071,95.0399 L817.0071,96.9119 C817.0071,98.9279 817.3421,101.2789 818.0151,103.9679 C818.1101,104.1589 818.2781,104.7099 818.5191,105.6239 C818.7571,106.5349 819.2141,107.0859 819.8871,107.2799 C821.2301,107.7589 822.5741,107.9029 823.9191,107.7119 C825.2621,107.4239 826.6061,106.8479 827.9511,105.9839 C829.2941,105.0229 830.3021,104.2069 830.9751,103.5359 C831.3581,103.0549 831.8391,102.4779 832.4141,101.8079 C832.9911,101.1349 833.5171,100.6059 833.9981,100.2239 L837.1671,97.4879 C838.2221,96.5269 839.3021,95.3279 840.4071,93.8879 C841.5091,92.4479 842.3011,91.4399 842.7831,90.8639 L845.6631,87.5519 L848.1111,83.9519 C848.0141,84.0489 848.9251,82.9939 850.8471,80.7839 C851.6151,80.0169 852.6691,78.7679 854.0151,77.0399 L856.0311,74.4479 L856.1751,74.1599 L856.4631,73.8719 C856.9421,72.8169 857.4711,72.1939 858.0471,71.9999 L859.1991,70.7039 C859.5811,70.2249 860.0131,69.7209 860.4951,69.1919 C860.9741,68.6649 861.4541,68.0179 861.9351,67.2479 L864.5271,63.3599 C866.9251,60.2889 868.5591,57.9849 869.4231,56.4479 C870.1901,54.9139 870.8141,53.7619 871.2951,52.9919 C872.6381,50.8819 873.4541,49.2979 873.7431,48.2399 L873.7431,48.0959 L876.0471,39.1679 C876.4291,37.8249 876.6701,36.8169 876.7671,36.1439 M926.5911,34.1999 C926.7831,34.4409 926.8791,34.7039 926.8791,34.9919 C926.8791,35.5679 926.6141,35.9279 926.0871,36.0719 C925.5581,36.2159 924.9821,36.2879 924.3591,36.2879 L922.9911,36.2879 C917.3261,36.6729 910.9901,36.8639 903.9831,36.8639 C900.1421,36.8639 894.3821,36.7689 886.7031,36.5759 C886.2211,38.5919 885.7431,41.3769 885.2631,44.9279 C885.1661,46.1769 884.9251,47.8079 884.5431,49.8239 C884.4461,50.4969 884.3271,51.4329 884.1831,52.6319 C884.0381,53.8329 884.0141,54.7689 884.1111,55.4399 C884.1111,56.8799 883.9171,58.6079 883.5351,60.6239 C883.1501,63.6979 882.9591,66.0009 882.9591,67.5359 C882.9591,69.6489 882.7181,71.9999 882.2391,74.5919 C882.0451,75.5529 881.9021,76.7289 881.8071,78.1199 C881.7101,79.5129 881.6141,80.6889 881.5191,81.6479 C881.4221,82.2239 881.3501,82.8249 881.3031,83.4479 C881.2531,84.0739 881.1811,84.6719 881.0871,85.2479 C880.8931,86.5939 880.7991,87.6959 880.7991,88.5599 L880.7991,92.3039 L880.5111,95.4719 C880.4141,95.7599 880.3671,96.1919 880.3671,96.7679 L880.5111,98.9279 C880.6061,99.5039 880.8461,100.6059 881.2311,102.2399 C881.4221,103.6799 881.6631,104.7349 881.9511,105.4079 L882.3831,106.4159 C882.4771,106.6069 882.7181,106.8479 883.1031,107.1359 C884.1591,107.5189 885.2631,107.7119 886.4141,107.7119 C888.3341,107.7119 890.1341,107.2549 891.8151,106.3439 C893.4941,105.4309 895.7251,103.9679 898.5111,101.9519 C899.7571,101.0879 901.0531,100.0309 902.3991,98.7839 C903.7431,97.5349 904.6541,96.6709 905.1351,96.1919 C907.3421,94.2699 909.2141,92.2069 910.7511,89.9999 C911.3271,89.4239 911.7591,89.1359 912.0471,89.1359 C912.7171,89.1359 913.0551,89.4739 913.0551,90.1439 C913.0551,90.4319 912.9111,90.7689 912.6221,91.1519 C912.3351,91.5369 912.1411,91.8249 912.0471,92.0159 L910.7511,93.5999 C908.5411,95.9979 906.4781,98.0149 904.5591,99.6479 C904.1741,100.0309 903.6701,100.5349 903.0471,101.1599 C902.4211,101.7829 901.8231,102.2879 901.2461,102.6719 C900.6711,103.0549 900.0701,103.4639 899.4471,103.8959 C898.8221,104.3279 898.1731,104.8319 897.5031,105.4079 C897.0221,105.7899 896.5171,106.1999 895.9911,106.6319 C895.4621,107.0639 894.8621,107.5189 894.1911,107.9999 C893.9031,108.1909 893.3741,108.5509 892.6071,109.0799 C891.8371,109.6059 891.1181,109.9669 890.4471,110.1599 C887.7581,110.8309 885.8391,111.1679 884.6871,111.1679 C884.1111,111.1679 883.4381,111.0709 882.6711,110.8799 C880.5581,110.4959 878.4461,109.4869 876.3351,107.8559 C875.1831,106.9919 874.1251,105.7429 873.1671,104.1119 C872.3031,103.0549 871.5341,101.5669 870.8631,99.6479 C870.6691,99.0719 870.2871,98.2079 869.7111,97.0559 C869.6151,96.6709 869.5171,96.1669 869.4231,95.5439 C869.3271,94.9179 869.2791,94.4639 869.2791,94.1759 L868.9911,91.7279 L868.9911,91.2959 L869.1351,88.9919 C868.9421,87.6489 868.8471,86.5439 868.8471,85.6799 C868.8471,84.7219 868.9191,83.4979 869.0631,82.0079 C869.2061,80.5209 869.3271,79.3439 869.4231,78.4799 L870.2871,70.9919 L870.7191,67.9679 L871.1511,62.6399 C871.2461,61.6819 871.3891,60.7929 871.5831,59.9759 C871.7741,59.1619 871.9181,58.4169 872.0151,57.7439 C872.3981,56.4009 872.6381,55.3929 872.7351,54.7199 C872.5411,55.0079 871.8221,56.4009 870.5751,58.8959 L869.2791,60.4799 L868.1271,62.2079 C867.7431,62.7839 867.3351,63.3129 866.9031,63.7919 C866.4711,64.2729 866.0611,64.7999 865.6791,65.3759 C864.4301,67.2979 863.7101,68.3999 863.5191,68.6879 L858.6221,74.5919 C857.7591,75.7439 857.2781,76.3699 857.1831,76.4639 C856.7021,76.9459 856.0791,77.7599 855.3111,78.9119 L853.1511,81.5039 C851.8051,82.8499 850.3661,84.6249 848.8301,86.8319 C847.9671,88.0809 846.6211,89.6649 844.7991,91.5839 C842.2061,95.0399 839.4711,98.3519 836.5911,101.5199 C834.0931,104.0149 832.4621,105.5519 831.6951,106.1279 L829.1031,108.2879 C828.8151,108.5759 828.4301,108.8389 827.9511,109.0799 C827.4691,109.3189 827.0381,109.5349 826.6551,109.7279 C825.0221,110.5919 823.2461,111.0239 821.3271,111.0239 C819.5021,111.0239 817.7491,110.6639 816.0711,109.9439 C814.3901,109.2239 812.9751,108.1909 811.8231,106.8479 C809.9021,104.8319 808.4611,102.5279 807.5031,99.9359 C807.3091,99.3599 807.0461,98.6629 806.7111,97.8479 C806.3731,97.0309 806.1581,96.3359 806.0631,95.7599 L805.6311,91.7279 L805.6311,91.2959 C805.6311,91.1049 805.6541,90.8169 805.7031,90.4319 C805.7501,90.0499 805.7251,89.5679 805.6311,88.9919 C805.6311,88.7039 805.5811,88.3689 805.4871,87.9839 C805.3901,87.6019 805.3901,87.2639 805.4871,86.9759 C805.4871,84.9599 805.5351,83.4259 805.6311,82.3679 L806.6391,72.7199 L807.0711,68.5439 C807.2621,67.3919 807.4541,65.6639 807.6471,63.3599 C808.0301,60.0979 808.3671,57.5999 808.6551,55.8719 C808.0791,57.0239 807.5971,57.8879 807.2151,58.4639 C807.0221,58.7519 806.3011,59.8099 805.0551,61.6319 C804.6701,62.3049 803.9971,63.2159 803.0381,64.3679 L800.8791,67.3919 C800.0151,68.9289 798.3811,70.9919 795.9831,73.5839 C795.7891,73.7779 795.4541,74.2319 794.9751,74.9519 C794.4961,75.6719 794.0161,76.0319 793.5351,76.0319 C793.2461,76.1289 793.0081,76.0819 792.8151,75.8879 C792.6231,75.6969 792.5271,75.4559 792.5271,75.1679 L792.5271,75.0239 C792.5271,74.8329 792.7201,74.4479 793.1031,73.8719 L795.6951,70.7039 L797.9981,67.8239 C798.4781,67.2479 798.8851,66.6719 799.2231,66.0959 C799.5581,65.5199 799.9181,64.9939 800.3031,64.5119 C800.6851,63.8419 801.4541,62.8329 802.6071,61.4879 L804.9111,58.3199 C805.2931,57.7439 805.6061,57.1679 805.8471,56.5919 C806.0851,56.0159 806.3981,55.4399 806.7831,54.8639 L810.3831,48.0959 L812.6871,39.1679 C812.8781,38.1129 813.2631,36.5289 813.8391,34.4159 L812.5431,34.4159 C810.8151,34.4159 809.4691,34.3689 808.5111,34.2719 C807.5501,34.1779 806.7341,34.1279 806.0631,34.1279 C805.4871,34.1279 804.7671,34.1529 803.9031,34.1999 C803.0381,34.2489 802.0791,34.2249 801.0231,34.1279 C799.4861,33.9369 798.4311,33.8399 797.8551,33.8399 C797.0851,33.8399 795.9331,33.9369 794.3991,34.1279 C793.0561,34.3219 792.0471,34.4159 791.3751,34.4159 L790.9431,34.4159 L789.0711,34.4159 C788.1131,34.4159 787.3431,34.4659 786.7671,34.5599 C785.9991,34.6569 785.1111,34.7039 784.1031,34.7039 L782.0151,34.7039 L777.2631,34.9919 C775.0561,35.0889 771.7441,35.3299 767.3271,35.7119 C766.9451,35.7119 766.6571,35.5209 766.4631,35.1359 C766.2721,34.7529 766.2721,34.3689 766.4631,33.9839 C766.5601,33.7929 766.7761,33.6489 767.1111,33.5519 C767.4491,33.4569 767.6641,33.4079 767.7591,33.4079 L770.4951,33.2639 C772.7991,33.0729 776.3521,32.8819 781.1511,32.6879 L782.3031,32.6879 L784.0311,32.6879 C784.4151,32.5939 785.0381,32.5439 785.9031,32.5439 C786.8641,32.3529 788.2561,32.2559 790.0791,32.2559 C791.1361,32.2559 792.8151,32.1619 795.1191,31.9679 C796.6541,31.7769 797.8551,31.6799 798.7191,31.6799 C799.6771,31.6799 800.5911,31.7289 801.4541,31.8239 C802.3191,31.9209 803.1831,31.9679 804.0471,31.9679 L807.0711,31.9679 L808.7991,31.9679 C809.8541,32.1619 811.4381,32.2559 813.5511,32.2559 L814.4141,32.2559 C814.5091,31.9679 814.6061,31.6579 814.7031,31.3199 C814.7971,30.9849 814.9421,30.6249 815.1351,30.2399 L815.9981,25.3439 L816.8631,21.0239 C816.8631,20.8329 816.9111,20.4979 817.0071,20.0159 C817.1011,19.5369 817.2461,19.2489 817.4391,19.1519 C817.8221,18.9609 818.1101,18.8639 818.3031,18.8639 C819.2611,18.8639 820.5101,19.1519 822.0471,19.7279 C823.8701,20.2089 824.9741,20.8799 825.3591,21.7439 C825.4541,21.8409 825.5031,21.9849 825.5031,22.1759 C825.5031,22.6579 825.4071,23.1839 825.2151,23.7599 L824.9271,26.0639 L824.0631,32.6879 L826.6551,32.6879 L837.7431,32.8319 C838.7981,32.8319 840.1661,32.8569 841.8471,32.9039 C843.5261,32.9539 845.4691,33.0729 847.6791,33.2639 C848.6371,33.3609 850.0781,33.4079 851.9981,33.4079 C854.3031,33.4079 856.0311,33.4569 857.1831,33.5519 C857.4711,33.6489 857.9971,33.6959 858.7671,33.6959 L861.7901,33.5519 L863.0871,33.5519 L866.5431,33.5519 L876.6221,33.9839 L877.3431,33.9839 C878.0131,32.0649 878.3981,30.8159 878.4951,30.2399 C878.7831,29.0879 879.1191,27.4569 879.5031,25.3439 C879.5971,24.8649 879.6941,24.2639 879.7901,23.5439 C879.8851,22.8239 880.0791,21.9849 880.3671,21.0239 C880.3671,20.0649 880.5581,19.4399 880.9431,19.1519 C881.1341,18.9609 881.4221,18.8639 881.8071,18.8639 C882.7651,18.8639 884.0141,19.1519 885.5511,19.7279 C887.2791,20.2089 888.3811,20.8799 888.8631,21.7439 C888.9571,21.8409 889.0071,21.9849 889.0071,22.1759 C889.0071,22.4639 888.9571,22.7519 888.8631,23.0399 C888.7661,23.3279 888.7191,23.5689 888.7191,23.7599 L888.4311,26.0639 C888.2381,27.0249 888.0461,28.3679 887.8551,30.0959 C887.6621,31.8239 887.4231,33.2639 887.1351,34.4159 L896.6391,34.7039 L904.4141,34.7039 C909.7901,34.7039 913.8701,34.6569 916.6551,34.5599 C918.9591,34.3689 920.6871,34.2719 921.8391,34.2719 L924.1431,33.9839 L925.7271,33.8399 C926.1101,33.8399 926.3981,33.9609 926.5911,34.1999" id="Fill-18" fill="#FFFFFF"></path>
                <path d="M1004.9243,36.576 C1005.3063,35.906 1005.6913,35.233 1006.0753,34.56 L1008.3803,30.816 C1008.7623,29.952 1009.4353,28.656 1010.3963,26.928 L1012.6993,23.616 C1013.7553,22.081 1014.4753,20.785 1014.8603,19.728 C1015.8193,18.097 1016.3943,16.992 1016.5883,16.416 L1017.8843,13.536 C1019.0353,11.138 1019.7563,9.409 1020.0433,8.352 L1020.1883,6.192 C1020.1883,4.658 1019.8503,3.553 1019.1803,2.88 C1018.7953,2.401 1018.3623,2.16 1017.8843,2.16 C1017.0203,2.16 1016.0593,2.93 1015.0033,4.464 C1014.0433,5.809 1013.1323,7.488 1012.2683,9.504 C1012.0743,10.08 1011.8113,10.8 1011.4763,11.664 C1011.1383,12.528 1010.8273,13.536 1010.5393,14.688 C1010.1543,16.322 1009.4823,18.097 1008.5243,20.016 C1007.3713,22.705 1006.6523,24.768 1006.3633,26.208 C1006.1703,27.554 1005.9543,28.753 1005.7163,29.808 C1005.4753,30.866 1005.2593,31.777 1005.0683,32.544 C1004.8743,33.217 1004.6363,34.153 1004.3483,35.352 C1004.0603,36.554 1003.8663,37.634 1003.7723,38.592 C1004.1543,37.921 1004.5393,37.249 1004.9243,36.576 L1004.9243,36.576 Z M1005.4993,128.448 L1004.2033,128.016 C1002.7643,127.823 1001.7063,127.584 1001.0353,127.296 C998.2503,126.144 995.9953,124.416 994.2683,122.112 C993.4983,120.863 992.7313,119.592 991.9643,118.296 C991.1953,117 990.6183,115.776 990.2363,114.624 C988.9863,111.359 988.2203,108.67 987.9323,106.56 L987.0683,101.808 C986.7793,100.271 986.6363,98.734 986.6363,97.2 C986.6363,96.719 986.5863,96.023 986.4913,95.112 C986.3953,94.199 986.2983,93.407 986.2033,92.736 C986.1073,92.063 986.0603,91.296 986.0603,90.432 C986.0603,89.568 986.0103,88.848 985.9153,88.272 L985.7723,82.224 C985.7723,80.689 985.8193,79.585 985.9153,78.912 C986.0103,77.472 986.0343,76.225 985.9873,75.168 C985.9383,74.113 985.9153,73.201 985.9153,72.432 C985.9153,71.185 985.9633,70.272 986.0603,69.696 C986.0603,69.313 986.1543,68.904 986.3483,68.472 C986.5393,68.04 986.5863,67.68 986.4913,67.392 L986.4913,67.104 C986.4913,66.625 986.5863,66.001 986.7793,65.232 L986.7793,63.36 C986.7793,62.784 986.8273,62.305 986.9243,61.92 C987.0183,61.537 987.1143,61.2 987.2113,60.912 C987.2113,60.433 987.2593,60.001 987.3563,59.616 C987.4503,59.233 987.5473,58.896 987.6443,58.608 C987.7383,58.225 987.7633,57.841 987.7163,57.456 C987.6663,57.074 987.6913,56.689 987.7873,56.304 L987.7873,55.584 C985.4843,58.273 983.7063,60.242 982.4593,61.488 C980.7323,63.025 979.0983,64.656 977.5643,66.384 C975.5483,68.4 973.9143,69.84 972.6673,70.704 L971.0833,72.144 C970.7963,72.529 970.2673,72.913 969.4993,73.296 C969.2113,73.584 968.7553,74.016 968.1323,74.592 C967.5063,75.168 966.9553,75.6 966.4763,75.888 C965.8053,76.561 965.0853,76.896 964.3163,76.896 C963.8363,76.896 963.5483,76.658 963.4513,76.176 L963.4513,75.888 C963.4513,75.312 963.8363,74.833 964.6043,74.448 C965.3733,74.065 965.8053,73.825 965.9003,73.728 L969.2113,70.992 L970.5083,69.696 L972.0923,68.544 C973.2433,67.777 974.4183,66.722 975.6193,65.376 C976.8193,64.033 977.7553,63.025 978.4283,62.352 C981.3083,59.665 983.4183,57.553 984.7643,56.016 C986.2033,54.194 987.2113,52.945 987.7873,52.272 L988.6523,51.408 C988.8433,50.832 989.0343,49.777 989.2283,48.24 C989.6113,45.842 989.9473,43.92 990.2363,42.48 C990.5243,41.521 990.8593,39.985 991.2433,37.872 C991.4353,37.201 991.6763,36.529 991.9643,35.856 C992.2513,35.185 992.4903,34.513 992.6843,33.84 C993.2603,31.921 994.2183,29.041 995.5643,25.2 C995.8523,24.048 996.5223,22.608 997.5793,20.88 C997.8673,20.401 998.1783,19.778 998.5163,19.008 C998.8513,18.241 999.1633,17.665 999.4513,17.28 C1000.2193,16.322 1000.6513,15.696 1000.7473,15.408 C1000.9393,15.025 1001.3233,14.45 1001.9003,13.68 C1002.0913,13.489 1002.2823,13.201 1002.4763,12.816 C1002.6673,12.433 1002.8593,12.145 1003.0523,11.952 L1003.7723,10.8 C1004.2513,9.842 1004.9463,8.881 1005.8603,7.92 C1006.7713,6.961 1007.4193,6.242 1007.8043,5.76 C1009.5313,3.937 1011.2103,2.448 1012.8443,1.296 C1013.9953,0.529 1015.1483,0.097 1016.3003,0 L1017.4513,0 C1018.9873,0 1020.1383,0.504 1020.9073,1.512 C1021.6753,2.52 1022.1073,3.553 1022.2033,4.608 L1022.2033,5.184 C1022.3953,7.681 1022.0103,9.889 1021.0523,11.808 C1020.5703,13.056 1020.0913,14.112 1019.6123,14.976 L1018.3163,17.712 C1017.6433,19.44 1016.5883,21.456 1015.1483,23.76 C1013.1323,26.833 1011.9803,28.609 1011.6923,29.088 C1010.4433,31.392 1009.2433,33.457 1008.0923,35.28 C1007.8043,35.856 1007.3473,36.698 1006.7243,37.8 C1006.0983,38.905 1005.4993,39.841 1004.9243,40.608 L1003.1953,43.2 C1002.9073,43.776 1002.7143,44.402 1002.6193,45.072 C1002.5233,45.744 1002.4763,46.177 1002.4763,46.368 L1001.3233,53.136 C1001.2273,53.424 1001.0833,54.025 1000.8923,54.936 C1000.6983,55.849 1000.6513,56.736 1000.7473,57.6 L1000.7473,58.032 C1000.7473,58.513 1000.6763,59.112 1000.5313,59.832 C1000.3883,60.552 1000.2663,61.153 1000.1723,61.632 C999.8843,62.593 999.7393,64.08 999.7393,66.096 C999.6433,66.481 999.6183,66.841 999.6673,67.176 C999.7153,67.513 999.6903,67.873 999.5963,68.256 C999.3083,68.929 999.1633,69.649 999.1633,70.416 L999.3083,77.184 C999.3083,78.721 999.2113,81.025 999.0203,84.096 L998.7323,88.416 L998.7323,93.312 L998.8753,97.488 C998.8753,99.695 998.9233,101.376 999.0203,102.528 C999.1143,103.104 999.2363,103.824 999.3803,104.688 C999.5243,105.552 999.5963,106.272 999.5963,106.848 C999.5963,107.23 999.6433,107.64 999.7393,108.072 C999.8343,108.504 999.8843,108.911 999.8843,109.296 C999.8843,109.775 999.9783,110.495 1000.1723,111.456 L1000.8923,115.776 C1001.1803,117.407 1001.6583,118.847 1002.3313,120.096 C1002.3313,120.287 1002.3793,120.384 1002.4763,120.384 L1002.9073,121.104 C1003.3873,121.871 1004.0343,122.591 1004.8523,123.264 C1005.6663,123.934 1006.5083,124.367 1007.3713,124.56 L1008.6673,124.704 C1009.5313,124.704 1010.7313,124.416 1012.2683,123.84 C1013.7073,123.167 1015.2423,122.062 1016.8753,120.528 C1017.4513,119.952 1018.0503,119.254 1018.6763,118.44 C1019.2993,117.623 1019.7563,117.022 1020.0433,116.64 C1020.2353,116.352 1020.4763,116.014 1020.7643,115.632 C1021.0523,115.247 1021.3403,114.815 1021.6273,114.336 C1021.7223,114.048 1021.9383,113.71 1022.2763,113.328 C1022.6113,112.943 1022.8743,112.608 1023.0683,112.32 C1023.2593,112.032 1023.4503,111.551 1023.6443,110.88 C1023.8353,110.207 1024.0753,109.728 1024.3633,109.44 C1024.6523,109.152 1025.0343,109.152 1025.5163,109.44 C1026.0923,109.823 1026.1863,110.398 1025.8043,111.168 C1025.7073,111.359 1025.5883,111.719 1025.4443,112.248 C1025.3003,112.774 1025.0833,113.231 1024.7963,113.616 L1023.3563,115.632 C1022.7793,116.591 1022.2983,117.263 1021.9153,117.648 C1021.6273,118.031 1021.3873,118.415 1021.1953,118.8 C1021.0023,119.182 1020.7643,119.52 1020.4763,119.808 C1020.5703,119.711 1019.9463,120.478 1018.6043,122.112 C1016.4903,124.222 1015.2423,125.424 1014.8603,125.712 C1014.1873,126.383 1013.4673,126.767 1012.6993,126.864 C1011.6423,127.534 1010.9223,127.919 1010.5393,128.016 C1009.3883,128.304 1008.1863,128.448 1006.9403,128.448 L1005.4993,128.448 Z" id="Fill-20" fill="#FFFFFF"></path>
                <path d="M1055.3247,89.5677 L1056.9087,88.7037 L1058.6367,87.1197 C1059.0187,86.6407 1059.3797,86.2087 1059.7167,85.8237 C1060.0527,85.4417 1060.4117,85.0097 1060.7967,84.5277 C1059.3567,84.3367 1058.2997,83.8577 1057.6287,83.0877 C1057.3407,82.6087 1057.1967,82.1297 1057.1967,81.6477 C1057.1967,81.0717 1057.3407,80.5927 1057.6287,80.2077 C1058.2047,79.6317 1058.8757,79.3437 1059.6447,79.3437 C1060.8907,79.3437 1061.8037,79.8727 1062.3807,80.9277 C1062.7627,79.7757 1063.0997,78.3857 1063.3877,76.7517 L1063.6767,72.8637 C1063.7707,72.5757 1063.8207,72.0967 1063.8207,71.4237 C1063.8207,70.9447 1063.7237,70.2247 1063.5327,69.2637 C1063.1477,67.6327 1062.9067,66.5277 1062.8127,65.9517 C1062.7167,64.8967 1062.1397,63.8417 1061.0847,62.7837 C1060.7967,62.4957 1060.4597,62.1357 1060.0767,61.7037 C1059.6917,61.2717 1059.2607,61.0087 1058.7807,60.9117 C1057.6287,60.7207 1056.9087,60.6237 1056.6207,60.6237 C1056.0447,60.6237 1055.6597,60.6737 1055.4687,60.7677 C1053.7407,61.0557 1052.3947,61.7757 1051.4367,62.9277 L1049.7087,65.2317 L1048.8447,66.5277 L1048.4127,67.8237 C1048.0277,68.6877 1047.7397,69.5517 1047.5487,70.4157 C1046.7787,73.7777 1046.3467,75.5997 1046.2527,75.8877 L1045.6767,78.4797 L1045.6767,81.5037 L1045.6767,82.9437 C1045.6767,84.7687 1045.9647,86.0647 1046.5407,86.8317 C1047.2117,87.7927 1047.7867,88.5127 1048.2687,88.9917 C1048.7477,89.4737 1049.4207,89.8087 1050.2847,89.9997 L1051.7237,90.1437 C1052.5887,90.1437 1053.7877,89.9527 1055.3247,89.5677 M1047.8367,93.8877 C1047.1637,93.8877 1046.4437,93.7437 1045.6767,93.4557 C1044.4287,93.1677 1043.2287,92.7357 1042.0767,92.1597 C1039.7727,91.0077 1038.0927,89.6647 1037.0367,88.1277 C1036.7487,87.7457 1036.3167,87.1697 1035.7407,86.3997 C1035.1647,85.6327 1034.6827,84.9597 1034.3007,84.3837 C1033.9157,83.7137 1033.6277,82.3677 1033.4367,80.3517 L1033.2927,76.3197 C1033.2927,74.2097 1033.5307,72.5757 1034.0127,71.4237 C1034.2037,70.8477 1034.3947,70.3937 1034.5887,70.0557 C1034.7797,69.7207 1034.9707,69.4077 1035.1647,69.1197 C1035.3557,68.7377 1035.4997,68.3777 1035.5957,68.0397 C1035.6907,67.7047 1035.7877,67.3917 1035.8847,67.1037 C1036.6517,65.5697 1037.3717,64.4177 1038.0447,63.6477 C1039.9637,61.2497 1042.2207,59.3777 1044.8127,58.0317 C1047.4047,56.6887 1050.0917,56.1597 1052.8767,56.4477 C1054.6047,56.6417 1055.8507,56.9297 1056.6207,57.3117 C1057.0997,57.5047 1057.7007,57.7437 1058.4207,58.0317 C1059.1397,58.3197 1059.7387,58.6077 1060.2207,58.8957 C1060.7967,59.2807 1061.7557,60.2417 1063.0997,61.7757 C1064.2527,63.1217 1064.8757,64.2737 1064.9717,65.2317 C1064.9717,65.9047 1065.0927,66.6717 1065.3327,67.5357 C1065.5707,68.3997 1065.7397,69.0257 1065.8367,69.4077 L1065.9807,71.4237 L1065.8367,73.4397 C1065.6427,75.5527 1065.4517,77.1367 1065.2607,78.1917 C1065.1637,79.4407 1064.7787,80.8807 1064.1087,82.5117 C1066.7007,82.5117 1068.7637,82.2737 1070.3007,81.7917 C1071.6437,81.4097 1072.6047,81.0717 1073.1797,80.7837 C1073.6597,80.4957 1074.3797,79.9697 1075.3407,79.1997 C1078.0267,77.1837 1079.6607,75.8877 1080.2367,75.3117 C1081.4827,73.7777 1082.1557,72.9607 1082.2527,72.8637 C1082.4437,72.5757 1082.7077,72.2877 1083.0447,71.9997 C1083.3797,71.7117 1083.7397,71.7117 1084.1247,71.9997 C1084.5077,72.1937 1084.7007,72.4817 1084.7007,72.8637 C1084.7007,73.2487 1084.5077,73.6557 1084.1247,74.0877 C1083.7397,74.5197 1083.4517,74.8797 1083.2607,75.1677 L1081.8207,76.7517 C1080.7627,77.8097 1079.6607,78.7677 1078.5087,79.6317 C1077.8357,80.0167 1077.2127,80.4487 1076.6367,80.9277 C1076.0607,81.4097 1075.4847,81.8417 1074.9087,82.2237 C1074.0447,82.7997 1072.7957,83.2817 1071.1647,83.6637 C1070.1067,84.0487 1068.5727,84.3367 1066.5557,84.5277 C1066.0747,84.6247 1065.4047,84.6717 1064.5407,84.6717 C1063.6767,84.6717 1063.1477,84.8157 1062.9567,85.1037 C1062.4747,85.7767 1062.0207,86.3777 1061.5887,86.9037 C1061.1567,87.4327 1060.7477,87.9367 1060.3647,88.4157 C1059.5007,89.5677 1058.6367,90.3847 1057.7727,90.8637 C1057.2917,91.1517 1056.7397,91.5367 1056.1167,92.0157 C1055.4907,92.4957 1054.8927,92.7827 1054.3167,92.8797 C1052.2037,93.5507 1050.8107,93.9357 1050.1397,94.0317 L1049.4207,94.0317 C1048.6507,94.0317 1048.1247,93.9827 1047.8367,93.8877" id="Fill-22" fill="#FFFFFF"></path>
                <path d="M1147.4839,72.8641 C1147.4839,73.3451 1147.2429,73.8241 1146.7639,74.3041 C1146.2819,74.7851 1145.9949,75.1211 1145.8999,75.3121 C1144.9389,76.4641 1143.9779,77.3771 1143.0199,78.0481 C1142.5389,78.3361 1141.6739,78.9611 1140.4269,79.9201 C1139.1789,80.8811 1137.9299,81.5531 1136.6839,81.9361 C1136.5879,81.9361 1136.3239,82.0081 1135.8919,82.1521 C1135.4599,82.2961 1135.0499,82.3681 1134.6679,82.3681 L1133.5159,82.3681 C1132.3639,82.3681 1130.9229,81.9361 1129.1959,81.0721 C1128.8109,80.9771 1128.3799,80.6891 1127.8999,80.2081 C1127.8029,79.9201 1127.6119,79.6561 1127.3239,79.4161 C1127.0359,79.1771 1126.7959,79.0091 1126.6039,78.9121 C1125.6429,77.9531 1125.0199,76.9921 1124.7319,76.0321 C1123.5799,77.7601 1122.4269,79.2971 1121.2759,80.6401 L1118.9719,83.5201 C1118.2989,84.4811 1117.2909,85.5851 1115.9479,86.8321 C1114.6019,88.0811 1113.5469,89.0891 1112.7799,89.8561 C1111.2429,91.2961 1109.9219,92.3761 1108.8199,93.0961 C1107.7149,93.8161 1106.5879,94.0321 1105.4359,93.7441 C1104.4749,93.7441 1103.2259,93.4561 1101.6919,92.8801 C1100.9219,92.5921 1100.2989,92.2071 1099.8199,91.7281 C1099.5319,91.6341 1099.2659,91.4401 1099.0279,91.1521 C1098.7869,90.8641 1098.6189,90.6251 1098.5239,90.4321 C1098.3309,90.2401 1098.1639,90.0961 1098.0199,90.0001 C1097.8759,89.9061 1097.7549,89.7611 1097.6599,89.5681 C1096.8899,88.5121 1096.3139,87.4571 1095.9319,86.4001 C1095.7379,86.0171 1095.5219,85.5851 1095.2839,85.1041 C1095.0439,84.6251 1094.8269,84.0491 1094.6349,83.3761 L1093.9159,79.9201 C1093.8189,79.4411 1093.7219,78.8171 1093.6279,78.0481 C1093.5309,77.2811 1093.4839,76.7051 1093.4839,76.3201 C1093.2909,74.7851 1093.2429,73.6341 1093.3389,72.8641 C1093.4339,72.0001 1093.5309,70.8971 1093.6279,69.5521 C1093.7219,68.2091 1093.8669,67.1041 1094.0599,66.2401 C1094.4419,64.4171 1095.0179,62.5211 1095.7879,60.5521 C1096.5549,58.5851 1097.0349,57.3621 1097.2279,56.8801 L1097.2279,56.3041 C1097.0349,55.9211 1096.8429,55.7281 1096.6519,55.7281 C1096.5549,55.7281 1096.3639,55.8721 1096.0759,56.1601 L1094.6349,58.6081 L1090.8919,64.6561 L1088.7319,67.8241 C1088.1559,68.4971 1087.3859,69.5051 1086.4269,70.8481 C1085.7549,72.0001 1084.8429,73.2491 1083.6919,74.5921 C1083.1159,75.2641 1082.6359,75.7441 1082.2519,76.0321 C1081.8699,76.3201 1081.4849,76.1761 1081.0999,75.6001 C1081.0049,75.5051 1080.9559,75.3121 1080.9559,75.0241 C1080.9559,74.5451 1081.1969,74.0651 1081.6749,73.5841 C1082.1569,73.1051 1082.4929,72.7201 1082.6839,72.4321 L1084.9879,69.1201 C1086.5219,67.2001 1087.4359,65.9521 1087.7239,65.3761 C1089.0669,63.5531 1089.8829,62.3521 1090.1709,61.7761 C1090.6509,60.7201 1091.6119,59.1361 1093.0509,57.0241 L1094.9229,54.0001 L1097.3719,49.9681 C1097.6599,49.4891 1097.9699,48.9601 1098.3079,48.3841 C1098.6429,47.8081 1099.0499,47.1371 1099.5319,46.3681 C1100.7779,44.9281 1101.7389,44.1141 1102.4119,43.9201 C1102.7949,43.7291 1103.2259,43.6321 1103.7079,43.6321 C1103.8989,43.6321 1104.0439,43.6811 1104.1399,43.7761 C1104.5219,43.7761 1104.8359,43.8251 1105.0759,43.9201 C1105.3139,44.0171 1105.5299,44.1141 1105.7239,44.2081 C1106.2029,44.3041 1106.7069,44.4961 1107.2359,44.7841 C1107.7619,45.0721 1108.0749,45.4571 1108.1709,45.9361 C1108.3629,46.2241 1108.5319,46.4651 1108.6749,46.6561 C1108.8199,46.8491 1108.9859,47.0881 1109.1799,47.3761 C1109.3709,48.1451 1109.4669,48.6721 1109.4669,48.9601 C1109.7549,50.4001 1109.8029,52.0331 1109.6119,53.8561 C1109.6119,54.8171 1109.5619,55.6561 1109.4669,56.3761 C1109.3709,57.0961 1109.2739,57.6971 1109.1799,58.1761 C1108.8919,60.1921 1108.3629,63.2161 1107.5959,67.2481 C1107.4019,68.2091 1107.2829,69.0481 1107.2359,69.7681 C1107.1859,70.4881 1107.1639,71.0891 1107.1639,71.5681 C1107.0669,72.1441 1106.9479,72.8421 1106.8039,73.6561 C1106.6599,74.4721 1106.5879,75.1211 1106.5879,75.6001 C1106.4909,76.5611 1106.2509,78.2411 1105.8679,80.6401 C1105.4829,82.3681 1105.2429,83.6641 1105.1479,84.5281 L1105.0039,86.9761 C1105.0039,87.7451 1105.0979,88.2721 1105.2919,88.5601 C1105.4829,89.0411 1105.7709,89.4961 1106.1559,89.9281 C1106.5389,90.3601 1106.9699,90.5761 1107.4519,90.5761 C1107.7399,90.5761 1108.0749,90.4321 1108.4599,90.1441 C1108.8419,89.8561 1109.1799,89.6651 1109.4669,89.5681 C1109.9469,89.3771 1110.5229,88.9451 1111.1959,88.2721 L1114.2189,85.3921 C1115.1779,84.5281 1116.4269,83.1371 1117.9629,81.2161 C1117.8669,81.3131 1118.5399,80.4961 1119.9799,78.7681 C1120.9379,77.7131 1121.8519,76.5131 1122.7149,75.1681 C1122.9069,74.7851 1123.2919,74.2091 1123.8679,73.4401 C1123.9629,73.3451 1124.0119,73.1521 1124.0119,72.8641 C1124.0119,72.5761 1123.9149,72.1441 1123.7239,71.5681 L1123.7239,70.8481 L1123.7239,69.1201 C1123.7239,68.9281 1123.7709,68.6161 1123.8679,68.1841 C1123.9629,67.7521 1124.0589,67.3921 1124.1559,67.1041 C1124.5389,65.5701 1124.9229,64.4651 1125.3079,63.7921 C1125.9779,62.5451 1126.9389,61.9201 1128.1879,61.9201 C1129.1459,61.9201 1129.7719,62.4481 1130.0599,63.5041 C1130.1539,63.6971 1130.2039,63.9861 1130.2039,64.3681 C1130.2039,65.1371 1130.0099,66.0961 1129.6279,67.2481 C1129.3389,67.7291 1129.1239,68.2561 1128.9799,68.8321 C1128.8359,69.4081 1128.6199,69.9371 1128.3319,70.4161 C1127.9469,70.9921 1127.5879,71.5211 1127.2519,72.0001 C1126.9149,72.4811 1126.6509,72.8641 1126.4599,73.1521 C1126.3629,73.2491 1126.3159,73.3931 1126.3159,73.5841 C1126.3159,73.8721 1126.3629,74.1131 1126.4599,74.3041 C1126.5539,74.4971 1126.6039,74.6891 1126.6039,74.8801 C1126.6979,75.2641 1127.0359,75.8411 1127.6119,76.6081 C1127.7069,76.9921 1127.9219,77.3051 1128.2589,77.5441 C1128.5949,77.7841 1128.8109,77.9531 1128.9079,78.0481 C1129.0989,78.2411 1129.3389,78.4801 1129.6279,78.7681 C1129.9159,79.0561 1130.1539,79.2491 1130.3479,79.3441 C1131.4999,79.9201 1132.6989,80.2081 1133.9479,80.2081 C1135.1939,80.2081 1136.3239,79.9201 1137.3319,79.3441 C1138.3389,78.7681 1139.5639,77.9041 1141.0039,76.7521 C1142.7319,75.4081 1143.8349,74.4011 1144.3159,73.7281 C1144.4109,73.6341 1144.6509,73.3451 1145.0359,72.8641 C1145.4189,72.3851 1145.7779,72.0501 1146.1159,71.8561 C1146.4509,71.6651 1146.8109,71.7611 1147.1959,72.1441 C1147.3869,72.2401 1147.4839,72.4811 1147.4839,72.8641" id="Fill-24" fill="#FFFFFF"></path>
                <path d="M1167.9302,66.096 C1169.3692,64.849 1170.5692,63.648 1171.5302,62.496 C1171.7212,62.304 1171.9372,62.041 1172.1782,61.704 C1172.4162,61.368 1172.7292,61.056 1173.1142,60.768 C1173.7842,60.097 1174.1692,59.665 1174.2662,59.472 C1174.8422,58.513 1175.3682,57.362 1175.8502,56.016 C1176.0412,55.634 1176.1852,55.201 1176.2822,54.72 C1176.3762,54.241 1176.4262,53.906 1176.4262,53.712 L1176.8582,51.696 L1176.8582,50.976 C1176.8582,49.729 1176.5702,48.816 1175.9932,48.24 C1175.4172,47.664 1174.8892,47.376 1174.4092,47.376 C1174.0252,47.282 1173.4492,47.426 1172.6822,47.808 C1172.3942,48.001 1172.1532,48.24 1171.9622,48.528 C1171.7682,48.816 1171.5772,49.056 1171.3862,49.248 L1170.3782,50.976 L1169.9462,51.696 L1168.2182,55.728 L1167.6422,56.88 C1167.3542,57.264 1167.2092,57.697 1167.2092,58.176 L1166.2012,60.624 L1165.7702,63.648 C1165.5762,64.993 1165.3852,66.001 1165.1942,66.672 C1165.0002,67.633 1164.9062,68.353 1164.9062,68.832 C1165.4822,68.256 1166.4902,67.345 1167.9302,66.096 M1164.9062,92.736 C1163.9452,92.542 1163.2722,92.351 1162.8902,92.16 C1162.6022,92.063 1162.3612,91.944 1162.1702,91.8 C1161.9762,91.656 1161.7852,91.536 1161.5942,91.44 C1159.2892,89.906 1157.2742,87.889 1155.5462,85.392 C1153.3362,81.842 1151.9462,79.2 1151.3692,77.472 C1150.8882,76.032 1150.6502,74.257 1150.6502,72.144 L1150.7942,68.544 L1149.0662,70.992 C1148.7782,71.377 1148.4902,71.809 1148.2012,72.288 C1147.9132,72.769 1147.5292,73.296 1147.0502,73.872 C1146.8572,74.065 1146.5692,74.448 1146.1862,75.024 C1145.8032,75.6 1145.4182,75.937 1145.0342,76.032 L1144.7452,76.176 C1144.4572,76.176 1144.2192,76.056 1144.0262,75.816 C1143.8342,75.577 1143.7382,75.312 1143.7382,75.024 C1143.7382,74.545 1144.2192,73.825 1145.1782,72.864 C1145.4662,72.288 1145.8512,71.762 1146.3292,71.28 C1147.4822,69.745 1148.2012,68.64 1148.4902,67.968 C1149.7372,66.049 1150.5062,64.753 1150.7942,64.08 C1150.9852,63.601 1151.2732,63.072 1151.6582,62.496 C1152.0402,61.92 1152.3282,61.441 1152.5222,61.056 C1152.9052,59.904 1153.5302,58.513 1154.3942,56.88 C1154.9702,55.634 1155.7372,54.481 1156.6982,53.424 C1157.8502,51.984 1159.9132,50.112 1162.8902,47.808 C1165.5762,45.986 1168.1682,44.928 1170.6652,44.64 C1171.8182,44.449 1172.7772,44.352 1173.5462,44.352 C1174.5042,44.352 1175.4412,44.568 1176.3542,45 C1177.2652,45.432 1177.8662,46.08 1178.1542,46.944 C1178.7302,48.193 1179.0182,49.298 1179.0182,50.256 C1179.0182,51.601 1178.8732,52.945 1178.5862,54.288 C1178.3922,55.44 1178.2012,56.209 1178.0102,56.592 L1177.1462,58.464 C1176.3762,60.192 1175.7052,61.297 1175.1302,61.776 C1174.6492,62.16 1174.1212,62.689 1173.5462,63.36 C1172.9702,64.033 1172.4892,64.609 1172.1062,65.088 L1168.7942,67.968 L1165.4822,71.136 L1164.7622,71.712 C1164.6652,72 1164.6172,72.385 1164.6172,72.864 L1164.7622,74.736 L1164.6172,76.896 L1164.6172,77.184 L1164.7622,78.624 C1164.7622,79.873 1165.0002,81.313 1165.4822,82.944 C1166.2492,85.345 1166.7782,86.832 1167.0662,87.408 C1167.6422,88.848 1168.6502,89.712 1170.0902,90 C1170.4722,90.096 1171.0012,90.144 1171.6742,90.144 C1172.4412,90.144 1173.2582,90 1174.1212,89.712 C1176.9052,88.466 1179.2562,87.217 1181.1782,85.968 C1181.6572,85.68 1182.2082,85.225 1182.8332,84.6 C1183.4572,83.977 1184.0582,83.52 1184.6342,83.232 C1185.9772,82.273 1186.8882,81.504 1187.3692,80.928 C1187.6582,80.545 1188.1842,80.064 1188.9532,79.488 L1190.2492,78.048 L1192.8422,74.88 L1195.5772,71.136 C1196.3452,69.601 1197.0182,68.497 1197.5942,67.824 C1197.6882,67.633 1197.8822,67.536 1198.1702,67.536 C1198.7452,67.536 1199.1282,67.777 1199.3222,68.256 L1199.3222,68.544 C1199.3222,69.313 1198.9852,70.034 1198.3142,70.704 C1197.8322,71.377 1197.3532,72.096 1196.8732,72.864 C1196.3922,73.634 1195.8172,74.448 1195.1462,75.312 L1191.5462,79.92 L1189.3862,81.936 C1189.0982,82.224 1188.8102,82.536 1188.5222,82.872 C1188.2342,83.209 1187.8492,83.52 1187.3692,83.808 L1182.7622,87.408 C1182.3772,87.696 1180.7452,88.753 1177.8662,90.576 C1176.0412,91.921 1174.3132,92.639 1172.6822,92.736 C1170.7602,93.024 1168.9852,93.118 1167.3542,93.024 C1166.8722,93.024 1166.0582,92.927 1164.9062,92.736" id="Fill-26" fill="#FFFFFF"></path>
                <g id="Group-30" transform="translate(0.000000, 62.264000)">
                    <mask id="mask-4" fill="white">
                        <use xlink:href="#path-3"></use>
                    </mask>
                    <g id="Clip-29"></g>
                    <path d="M285.2904,3.2998 C282.6124,4.1068 280.0294,5.0528 277.3474,5.6578 C274.6664,6.3648 271.8594,6.7688 269.1784,7.3738 C267.9034,7.6768 266.4974,7.8778 265.0944,8.3828 C263.9474,8.7868 262.7974,9.1898 261.3934,9.3928 C255.9034,10.3008 250.1594,11.0068 244.5434,11.7138 C239.0554,12.3188 233.5674,12.6218 228.0774,12.6218 C222.2084,12.6218 216.4644,12.5198 210.7204,12.5198 C198.4664,12.5198 186.2134,11.7138 173.9594,11.0068 C171.0214,10.8048 168.2154,10.9058 165.4064,10.8048 C162.4714,10.6028 159.5344,10.3008 156.5994,10.0988 C150.7274,9.5938 144.8554,9.4928 138.9864,9.1898 C133.1144,8.8868 127.2424,8.3828 121.3704,7.9788 C115.6264,7.5748 109.7544,7.3738 104.0104,7.0708 C101.2034,6.9698 98.3944,6.4658 95.5874,6.2638 C92.7784,6.0618 89.8434,6.0618 86.9064,5.9608 C81.0344,5.8608 75.2904,4.8518 69.5494,4.7498 C66.6114,4.6488 63.8054,4.3458 60.9954,4.3458 C58.0614,4.3458 55.1234,4.1448 52.1894,4.0438 C49.7644,3.9438 47.3394,3.8418 44.9144,3.8418 C41.4674,3.8418 38.0204,3.9438 34.5734,4.1448 C28.9574,4.3458 23.0854,4.5488 17.3414,5.2558 C14.6624,5.6578 11.8534,6.0618 9.1724,6.7688 C6.6214,7.2728 4.0684,7.9788 1.6434,8.7868 C1.5154,8.8868 1.2594,8.8868 1.1314,8.8868 C0.3654,8.8868 -0.4006,8.2818 0.2374,7.7778 C0.6214,7.3738 1.6434,7.1728 2.2814,6.9698 L4.4504,6.4658 C7.3874,5.6578 10.3224,4.8518 13.3844,4.3458 C20.0224,3.2368 26.7884,2.8328 33.5544,2.3288 C40.0634,1.8238 46.6984,1.7228 53.2114,1.7228 C58.3144,1.7228 63.4214,1.8238 68.6554,1.8238 C71.4614,1.8238 74.2714,2.0258 77.0774,2.2278 C80.0154,2.4288 82.8214,2.5298 85.7594,2.6318 C88.5654,2.6318 91.5034,2.5298 94.4374,2.7318 C97.2474,2.8328 100.0534,3.3378 102.9914,3.3378 C105.7974,3.4378 108.6074,3.5398 111.4134,3.5398 L115.6264,3.8418 C116.7764,3.8418 118.0514,3.7408 119.2014,3.7408 C122.0074,3.7408 124.9454,4.1448 127.7514,4.3458 C130.6894,4.5488 133.6234,4.6488 136.5584,4.7498 C142.5584,4.9518 148.4304,5.0528 154.3024,5.3558 C157.2374,5.5578 160.0464,5.8608 162.9804,6.0618 C165.9184,6.2638 168.8534,6.2638 171.7874,6.3648 C177.6594,6.6668 183.5314,6.9698 189.4034,7.3738 C195.2754,7.6768 201.1444,8.1808 207.0174,8.3828 C213.0174,8.5848 218.7614,8.8868 224.7614,9.1898 L228.5894,9.1898 C233.1834,9.1898 237.7804,8.8868 242.2464,8.6858 C247.8624,8.3828 253.4784,7.6768 259.2224,7.2728 C260.6284,7.1728 262.1594,7.0708 263.4344,6.6668 C264.7124,6.3648 265.8594,6.1628 267.1374,6.0618 C269.8164,5.8608 272.6254,5.1538 275.1784,4.6488 C277.8604,4.0438 279.8384,3.1358 282.3924,2.4288 C283.6274,1.9618 284.1024,1.5778 285.7714,1.0868 C286.5374,0.7848 288.8354,0.2088 289.7294,0.7148 C290.0164,1.0778 289.1664,1.7578 287.7924,2.2488 C286.6604,2.6538 285.6494,3.1578 285.2904,3.2998" id="Fill-28" fill="#FFFFFF" mask="url(#mask-4)"></path>
                </g>
                <g id="Group-33" transform="translate(1197.000000, 60.264000)" fill="#FFFFFF">
                    <path d="M285.5234,3.1557 C282.8454,3.9627 280.2624,4.9087 277.5804,5.5137 C274.8994,6.2207 272.0934,6.6247 269.4114,7.2297 C268.1364,7.5327 266.7304,7.7337 265.3274,8.2387 C264.1804,8.6427 263.0304,9.0457 261.6274,9.2487 C256.1364,10.1567 250.3924,10.8627 244.7764,11.5697 C239.2884,12.1747 233.8004,12.4777 228.3104,12.4777 C222.4414,12.4777 216.6974,12.3757 210.9534,12.3757 C198.6994,12.3757 186.4464,11.5697 174.1924,10.8627 C171.2544,10.6607 168.4484,10.7617 165.6394,10.6607 C162.7044,10.4587 159.7674,10.1567 156.8324,9.9547 C150.9604,9.4497 145.0884,9.3487 139.2194,9.0457 C133.3474,8.7427 127.4754,8.2387 121.6034,7.8347 C115.8594,7.4307 109.9874,7.2297 104.2434,6.9267 C101.4364,6.8257 98.6274,6.3217 95.8204,6.1197 C93.0114,5.9177 90.0764,5.9177 87.1394,5.8167 C81.2674,5.7167 75.5234,4.7077 69.7824,4.6057 C66.8444,4.5047 64.0384,4.2017 61.2284,4.2017 C58.2944,4.2017 55.3564,4.0007 52.4224,3.8997 C49.9974,3.7997 47.5724,3.6977 45.1474,3.6977 C41.7004,3.6977 38.2534,3.7997 34.8064,4.0007 C29.1904,4.2017 23.3184,4.4047 17.5744,5.1117 C14.8954,5.5137 12.0864,5.9177 9.4054,6.6247 C6.8554,7.1287 4.3014,7.8347 1.8764,8.6427 C1.7484,8.7427 1.4924,8.7427 1.3644,8.7427 C0.5984,8.7427 -0.1676,8.1377 0.4704,7.6337 C0.8544,7.2297 1.8764,7.0287 2.5144,6.8257 L4.6834,6.3217 C7.6204,5.5137 10.5554,4.7077 13.6174,4.2017 C20.2554,3.0927 27.0214,2.6887 33.7874,2.1847 C40.2964,1.6797 46.9314,1.5787 53.4444,1.5787 C58.5474,1.5787 63.6544,1.6797 68.8884,1.6797 C71.6954,1.6797 74.5044,1.8817 77.3104,2.0837 C80.2484,2.2847 83.0544,2.3857 85.9924,2.4877 C88.7984,2.4877 91.7364,2.3857 94.6704,2.5877 C97.4804,2.6887 100.2864,3.1937 103.2244,3.1937 C106.0304,3.2937 108.8404,3.3957 111.6464,3.3957 L115.8594,3.6977 C117.0094,3.6977 118.2844,3.5967 119.4344,3.5967 C122.2404,3.5967 125.1784,4.0007 127.9844,4.2017 C130.9224,4.4047 133.8564,4.5047 136.7914,4.6057 C142.7914,4.8077 148.6634,4.9087 154.5354,5.2117 C157.4704,5.4137 160.2794,5.7167 163.2144,5.9177 C166.1514,6.1197 169.0864,6.1197 172.0204,6.2207 C177.8924,6.5227 183.7644,6.8257 189.6364,7.2297 C195.5084,7.5327 201.3774,8.0367 207.2504,8.2387 C213.2504,8.4407 218.9944,8.7427 224.9944,9.0457 L228.8224,9.0457 C233.4164,9.0457 238.0134,8.7427 242.4794,8.5417 C248.0954,8.2387 253.7114,7.5327 259.4554,7.1287 C260.8614,7.0287 262.3924,6.9267 263.6674,6.5227 C264.9454,6.2207 266.0924,6.0187 267.3704,5.9177 C270.0494,5.7167 272.8584,5.0097 275.4114,4.5047 C278.0934,3.8997 280.0724,2.9917 282.6254,2.2847 C283.8614,1.8177 284.3354,1.4337 286.0044,0.9427 C286.7704,0.6407 289.0684,0.0647 289.9624,0.5707 C290.2494,0.9337 289.3994,1.6137 288.0254,2.1047 C286.8934,2.5097 285.8824,3.0137 285.5234,3.1557" id="Fill-31"></path>
                </g>
                <path d="M587.334,89.9998 C587.334,89.9998 591.333,86.5958 595.833,84.0128 C600.333,81.4298 605.5,79.2628 605.5,79.2628 C605.5,79.2628 619,75.2628 622,75.2628 C625,75.2628 632.667,72.5958 634.083,72.4298 C635.5,72.2628 639.603,70.8478 639.603,70.8478 L639.315,73.2958 C639.315,73.2958 630.667,75.4298 626,76.2628 C621.333,77.0958 619.75,77.0128 615.833,78.2628 C611.917,79.5128 608.5,79.8458 606.083,81.0128 C603.667,82.1798 601.071,83.8458 599.286,84.6798 C597.5,85.5128 591.874,88.0728 588.486,92.0158 C585.097,95.9588 587.334,89.9998 587.334,89.9998" id="Fill-34" fill="#FFFFFF"></path>
                <path d="M910.7515,89.9998 C910.7515,89.9998 923.4165,81.4298 934.9165,80.0958 C946.4165,78.7628 953.0485,78.3038 958.2505,77.0958 C963.4515,75.8878 961.7695,76.4398 964.6045,74.4478 C967.4385,72.4568 968.1325,74.5918 968.1325,74.5918 C968.1325,74.5918 964.7505,78.2628 961.9165,79.0958 C959.0835,79.9298 952.0415,81.1738 945.8755,81.6378 C939.7085,82.1008 935.8755,81.6378 930.6875,83.4498 C925.8305,85.1478 919.1115,87.7148 916.0835,88.9298 C913.0555,90.1438 912.0475,92.0158 912.0475,92.0158 L910.7515,89.9998 Z" id="Fill-36" fill="#FFFFFF"></path>
            </g>
        </g>
    </g>
</svg>